<?xml version="1.0" encoding="us-ascii" standalone="no"?><svg xmlns="http://www.w3.org/2000/svg" xmlns:xlink="http://www.w3.org/1999/xlink" contentStyleType="text/css" height="900px" preserveAspectRatio="none" style="width:1728px;height:900px;background:#FFFFFF;" version="1.1" viewBox="0 0 1728 900" width="1728px" zoomAndPan="magnify"><defs/><g><!--class Usuario--><g id="elem_Usuario"><rect codeLine="1" fill="#F1F1F1" height="113.1875" id="Usuario" rx="2.5" ry="2.5" style="stroke:#181818;stroke-width:0.5;" width="233" x="1024.5" y="632"/><ellipse cx="1111.25" cy="648" fill="#ADD1B2" rx="11" ry="11" style="stroke:#181818;stroke-width:1.0;"/><path d="M1113.5938,643.6719 C1112.6563,643.2344 1112.0625,643.0938 1111.1875,643.0938 C1108.5625,643.0938 1106.5625,645.1719 1106.5625,647.8906 L1106.5625,649.0156 C1106.5625,651.5938 1108.6719,653.4844 1111.5625,653.4844 C1112.7813,653.4844 1113.9375,653.1875 1114.6875,652.6406 C1115.2656,652.2344 1115.5938,651.7813 1115.5938,651.3906 C1115.5938,650.9375 1115.2031,650.5469 1114.7344,650.5469 C1114.5156,650.5469 1114.3125,650.625 1114.125,650.8125 C1113.6719,651.2969 1113.6719,651.2969 1113.4844,651.3906 C1113.0625,651.6563 1112.375,651.7813 1111.6094,651.7813 C1109.5625,651.7813 1108.2656,650.6875 1108.2656,648.9844 L1108.2656,647.8906 C1108.2656,646.1094 1109.5156,644.7969 1111.25,644.7969 C1111.8281,644.7969 1112.4375,644.9531 1112.9063,645.2031 C1113.3906,645.4844 1113.5625,645.7031 1113.6563,646.1094 C1113.7188,646.5156 1113.75,646.6406 1113.8906,646.7656 C1114.0313,646.9063 1114.2656,647.0156 1114.4844,647.0156 C1114.75,647.0156 1115.0156,646.875 1115.1875,646.6563 C1115.2969,646.5 1115.3281,646.3125 1115.3281,645.8906 L1115.3281,644.4688 C1115.3281,644.0313 1115.3125,643.9063 1115.2188,643.75 C1115.0625,643.4844 1114.7813,643.3438 1114.4844,643.3438 C1114.1875,643.3438 1113.9844,643.4375 1113.7656,643.75 L1113.5938,643.6719 Z " fill="#000000"/><text fill="#000000" font-family="sans-serif" font-size="14" lengthAdjust="spacing" textLength="51" x="1131.75" y="652.8467">Usuario</text><line style="stroke:#181818;stroke-width:0.5;" x1="1025.5" x2="1256.5" y1="664" y2="664"/><rect fill="none" height="6" style="stroke:#C82930;stroke-width:1.0;" width="6" x="1032.5" y="674.6484"/><text fill="#000000" font-family="sans-serif" font-size="14" lengthAdjust="spacing" textLength="165" x="1044.5" y="680.9951">nombreUsuario : String</text><rect fill="none" height="6" style="stroke:#C82930;stroke-width:1.0;" width="6" x="1032.5" y="690.9453"/><text fill="#000000" font-family="sans-serif" font-size="14" lengthAdjust="spacing" textLength="96" x="1044.5" y="697.292">email : String</text><rect fill="none" height="6" style="stroke:#C82930;stroke-width:1.0;" width="6" x="1032.5" y="707.2422"/><text fill="#000000" font-family="sans-serif" font-size="14" lengthAdjust="spacing" textLength="141" x="1044.5" y="713.5889">contrasenia : String</text><rect fill="none" height="6" style="stroke:#C82930;stroke-width:1.0;" width="6" x="1032.5" y="723.5391"/><text fill="#000000" font-family="sans-serif" font-size="14" lengthAdjust="spacing" textLength="207" x="1044.5" y="729.8857">rolEnSistema : RolEnSistema</text><line style="stroke:#181818;stroke-width:0.5;" x1="1025.5" x2="1256.5" y1="737.1875" y2="737.1875"/></g><!--class Centro--><g id="elem_Centro"><rect codeLine="8" fill="#F1F1F1" height="64.2969" id="Centro" rx="2.5" ry="2.5" style="stroke:#181818;stroke-width:0.5;" width="140" x="7" y="310.5"/><ellipse cx="48.1" cy="326.5" fill="#ADD1B2" rx="11" ry="11" style="stroke:#181818;stroke-width:1.0;"/><path d="M50.4438,322.1719 C49.5063,321.7344 48.9125,321.5938 48.0375,321.5938 C45.4125,321.5938 43.4125,323.6719 43.4125,326.3906 L43.4125,327.5156 C43.4125,330.0938 45.5219,331.9844 48.4125,331.9844 C49.6313,331.9844 50.7875,331.6875 51.5375,331.1406 C52.1156,330.7344 52.4438,330.2813 52.4438,329.8906 C52.4438,329.4375 52.0531,329.0469 51.5844,329.0469 C51.3656,329.0469 51.1625,329.125 50.975,329.3125 C50.5219,329.7969 50.5219,329.7969 50.3344,329.8906 C49.9125,330.1563 49.225,330.2813 48.4594,330.2813 C46.4125,330.2813 45.1156,329.1875 45.1156,327.4844 L45.1156,326.3906 C45.1156,324.6094 46.3656,323.2969 48.1,323.2969 C48.6781,323.2969 49.2875,323.4531 49.7563,323.7031 C50.2406,323.9844 50.4125,324.2031 50.5063,324.6094 C50.5688,325.0156 50.6,325.1406 50.7406,325.2656 C50.8813,325.4063 51.1156,325.5156 51.3344,325.5156 C51.6,325.5156 51.8656,325.375 52.0375,325.1563 C52.1469,325 52.1781,324.8125 52.1781,324.3906 L52.1781,322.9688 C52.1781,322.5313 52.1625,322.4063 52.0688,322.25 C51.9125,321.9844 51.6313,321.8438 51.3344,321.8438 C51.0375,321.8438 50.8344,321.9375 50.6156,322.25 L50.4438,322.1719 Z " fill="#000000"/><text fill="#000000" font-family="sans-serif" font-size="14" lengthAdjust="spacing" textLength="50" x="67.9" y="331.3467">Centro</text><line style="stroke:#181818;stroke-width:0.5;" x1="8" x2="146" y1="342.5" y2="342.5"/><rect fill="none" height="6" style="stroke:#C82930;stroke-width:1.0;" width="6" x="15" y="353.1484"/><text fill="#000000" font-family="sans-serif" font-size="14" lengthAdjust="spacing" textLength="114" x="27" y="359.4951">nombre : String</text><line style="stroke:#181818;stroke-width:0.5;" x1="8" x2="146" y1="366.7969" y2="366.7969"/></g><!--class ObraSocial--><g id="elem_ObraSocial"><rect codeLine="12" fill="#F1F1F1" height="64.2969" id="ObraSocial" rx="2.5" ry="2.5" style="stroke:#181818;stroke-width:0.5;" width="140" x="182" y="310.5"/><ellipse cx="210.95" cy="326.5" fill="#ADD1B2" rx="11" ry="11" style="stroke:#181818;stroke-width:1.0;"/><path d="M213.2938,322.1719 C212.3563,321.7344 211.7625,321.5938 210.8875,321.5938 C208.2625,321.5938 206.2625,323.6719 206.2625,326.3906 L206.2625,327.5156 C206.2625,330.0938 208.3719,331.9844 211.2625,331.9844 C212.4813,331.9844 213.6375,331.6875 214.3875,331.1406 C214.9656,330.7344 215.2938,330.2813 215.2938,329.8906 C215.2938,329.4375 214.9031,329.0469 214.4344,329.0469 C214.2156,329.0469 214.0125,329.125 213.825,329.3125 C213.3719,329.7969 213.3719,329.7969 213.1844,329.8906 C212.7625,330.1563 212.075,330.2813 211.3094,330.2813 C209.2625,330.2813 207.9656,329.1875 207.9656,327.4844 L207.9656,326.3906 C207.9656,324.6094 209.2156,323.2969 210.95,323.2969 C211.5281,323.2969 212.1375,323.4531 212.6063,323.7031 C213.0906,323.9844 213.2625,324.2031 213.3563,324.6094 C213.4188,325.0156 213.45,325.1406 213.5906,325.2656 C213.7313,325.4063 213.9656,325.5156 214.1844,325.5156 C214.45,325.5156 214.7156,325.375 214.8875,325.1563 C214.9969,325 215.0281,324.8125 215.0281,324.3906 L215.0281,322.9688 C215.0281,322.5313 215.0125,322.4063 214.9188,322.25 C214.7625,321.9844 214.4813,321.8438 214.1844,321.8438 C213.8875,321.8438 213.6844,321.9375 213.4656,322.25 L213.2938,322.1719 Z " fill="#000000"/><text fill="#000000" font-family="sans-serif" font-size="14" lengthAdjust="spacing" textLength="77" x="228.05" y="331.3467">ObraSocial</text><line style="stroke:#181818;stroke-width:0.5;" x1="183" x2="321" y1="342.5" y2="342.5"/><rect fill="none" height="6" style="stroke:#C82930;stroke-width:1.0;" width="6" x="190" y="353.1484"/><text fill="#000000" font-family="sans-serif" font-size="14" lengthAdjust="spacing" textLength="114" x="202" y="359.4951">nombre : String</text><line style="stroke:#181818;stroke-width:0.5;" x1="183" x2="321" y1="366.7969" y2="366.7969"/></g><!--class Especialidad--><g id="elem_Especialidad"><rect codeLine="16" fill="#F1F1F1" height="64.2969" id="Especialidad" rx="2.5" ry="2.5" style="stroke:#181818;stroke-width:0.5;" width="140" x="357" y="310.5"/><ellipse cx="380.55" cy="326.5" fill="#ADD1B2" rx="11" ry="11" style="stroke:#181818;stroke-width:1.0;"/><path d="M382.8938,322.1719 C381.9563,321.7344 381.3625,321.5938 380.4875,321.5938 C377.8625,321.5938 375.8625,323.6719 375.8625,326.3906 L375.8625,327.5156 C375.8625,330.0938 377.9719,331.9844 380.8625,331.9844 C382.0813,331.9844 383.2375,331.6875 383.9875,331.1406 C384.5656,330.7344 384.8938,330.2813 384.8938,329.8906 C384.8938,329.4375 384.5031,329.0469 384.0344,329.0469 C383.8156,329.0469 383.6125,329.125 383.425,329.3125 C382.9719,329.7969 382.9719,329.7969 382.7844,329.8906 C382.3625,330.1563 381.675,330.2813 380.9094,330.2813 C378.8625,330.2813 377.5656,329.1875 377.5656,327.4844 L377.5656,326.3906 C377.5656,324.6094 378.8156,323.2969 380.55,323.2969 C381.1281,323.2969 381.7375,323.4531 382.2063,323.7031 C382.6906,323.9844 382.8625,324.2031 382.9563,324.6094 C383.0188,325.0156 383.05,325.1406 383.1906,325.2656 C383.3313,325.4063 383.5656,325.5156 383.7844,325.5156 C384.05,325.5156 384.3156,325.375 384.4875,325.1563 C384.5969,325 384.6281,324.8125 384.6281,324.3906 L384.6281,322.9688 C384.6281,322.5313 384.6125,322.4063 384.5188,322.25 C384.3625,321.9844 384.0813,321.8438 383.7844,321.8438 C383.4875,321.8438 383.2844,321.9375 383.0656,322.25 L382.8938,322.1719 Z " fill="#000000"/><text fill="#000000" font-family="sans-serif" font-size="14" lengthAdjust="spacing" textLength="89" x="396.45" y="331.3467">Especialidad</text><line style="stroke:#181818;stroke-width:0.5;" x1="358" x2="496" y1="342.5" y2="342.5"/><rect fill="none" height="6" style="stroke:#C82930;stroke-width:1.0;" width="6" x="365" y="353.1484"/><text fill="#000000" font-family="sans-serif" font-size="14" lengthAdjust="spacing" textLength="114" x="377" y="359.4951">nombre : String</text><line style="stroke:#181818;stroke-width:0.5;" x1="358" x2="496" y1="366.7969" y2="366.7969"/></g><!--class Cirugia--><g id="elem_Cirugia"><rect codeLine="20" fill="#F1F1F1" height="210.9688" id="Cirugia" rx="2.5" ry="2.5" style="stroke:#181818;stroke-width:0.5;" width="435" x="488.5" y="7"/><ellipse cx="677.25" cy="23" fill="#ADD1B2" rx="11" ry="11" style="stroke:#181818;stroke-width:1.0;"/><path d="M679.5938,18.6719 C678.6563,18.2344 678.0625,18.0938 677.1875,18.0938 C674.5625,18.0938 672.5625,20.1719 672.5625,22.8906 L672.5625,24.0156 C672.5625,26.5938 674.6719,28.4844 677.5625,28.4844 C678.7813,28.4844 679.9375,28.1875 680.6875,27.6406 C681.2656,27.2344 681.5938,26.7813 681.5938,26.3906 C681.5938,25.9375 681.2031,25.5469 680.7344,25.5469 C680.5156,25.5469 680.3125,25.625 680.125,25.8125 C679.6719,26.2969 679.6719,26.2969 679.4844,26.3906 C679.0625,26.6563 678.375,26.7813 677.6094,26.7813 C675.5625,26.7813 674.2656,25.6875 674.2656,23.9844 L674.2656,22.8906 C674.2656,21.1094 675.5156,19.7969 677.25,19.7969 C677.8281,19.7969 678.4375,19.9531 678.9063,20.2031 C679.3906,20.4844 679.5625,20.7031 679.6563,21.1094 C679.7188,21.5156 679.75,21.6406 679.8906,21.7656 C680.0313,21.9063 680.2656,22.0156 680.4844,22.0156 C680.75,22.0156 681.0156,21.875 681.1875,21.6563 C681.2969,21.5 681.3281,21.3125 681.3281,20.8906 L681.3281,19.4688 C681.3281,19.0313 681.3125,18.9063 681.2188,18.75 C681.0625,18.4844 680.7813,18.3438 680.4844,18.3438 C680.1875,18.3438 679.9844,18.4375 679.7656,18.75 L679.5938,18.6719 Z " fill="#000000"/><text fill="#000000" font-family="sans-serif" font-size="14" lengthAdjust="spacing" textLength="49" x="697.75" y="27.8467">Cirugia</text><line style="stroke:#181818;stroke-width:0.5;" x1="489.5" x2="922.5" y1="39" y2="39"/><rect fill="none" height="6" style="stroke:#C82930;stroke-width:1.0;" width="6" x="496.5" y="49.6484"/><text fill="#000000" font-family="sans-serif" font-size="14" lengthAdjust="spacing" textLength="107" x="508.5" y="55.9951">Centro: centro</text><rect fill="none" height="6" style="stroke:#C82930;stroke-width:1.0;" width="6" x="496.5" y="65.9453"/><text fill="#000000" font-family="sans-serif" font-size="14" lengthAdjust="spacing" textLength="165" x="508.5" y="72.292">obraSocial : ObraSocial</text><rect fill="none" height="6" style="stroke:#C82930;stroke-width:1.0;" width="6" x="496.5" y="82.2422"/><text fill="#000000" font-family="sans-serif" font-size="14" lengthAdjust="spacing" textLength="191" x="508.5" y="88.5889">especialidad : Especialidad</text><rect fill="none" height="6" style="stroke:#C82930;stroke-width:1.0;" width="6" x="496.5" y="98.5391"/><text fill="#000000" font-family="sans-serif" font-size="14" lengthAdjust="spacing" textLength="95" x="508.5" y="104.8857">precio : Float</text><rect fill="none" height="6" style="stroke:#C82930;stroke-width:1.0;" width="6" x="496.5" y="114.8359"/><text fill="#000000" font-family="sans-serif" font-size="14" lengthAdjust="spacing" textLength="130" x="508.5" y="121.1826">practica : Practica</text><rect fill="none" height="6" style="stroke:#C82930;stroke-width:1.0;" width="6" x="496.5" y="131.1328"/><text fill="#000000" font-family="sans-serif" font-size="14" lengthAdjust="spacing" textLength="196" x="508.5" y="137.4795">fechaPago : LocalDateTime</text><rect fill="none" height="6" style="stroke:#C82930;stroke-width:1.0;" width="6" x="496.5" y="147.4297"/><text fill="#000000" font-family="sans-serif" font-size="14" lengthAdjust="spacing" textLength="242" x="508.5" y="153.7764">fechaRealizacion : LocalDateTime</text><rect fill="none" height="6" style="stroke:#C82930;stroke-width:1.0;" width="6" x="496.5" y="163.7266"/><text fill="#000000" font-family="sans-serif" font-size="14" lengthAdjust="spacing" textLength="181" x="508.5" y="170.0732">estadoPago : EstadoPago</text><rect fill="none" height="6" style="stroke:#C82930;stroke-width:1.0;" width="6" x="496.5" y="180.0234"/><text fill="#000000" font-family="sans-serif" font-size="14" lengthAdjust="spacing" textLength="202" x="508.5" y="186.3701">integrantes : List&lt;Persona&gt;</text><rect fill="none" height="6" style="stroke:#C82930;stroke-width:1.0;" width="6" x="496.5" y="196.3203"/><text fill="#000000" font-family="sans-serif" font-size="14" lengthAdjust="spacing" textLength="409" x="508.5" y="202.667">HonorariosDeIntegrantes: List&lt;HonorarioPorIntegrante&gt;</text><line style="stroke:#181818;stroke-width:0.5;" x1="489.5" x2="922.5" y1="209.9688" y2="209.9688"/></g><!--class HonorarioPorIntegrante--><g id="elem_HonorarioPorIntegrante"><rect codeLine="33" fill="#F1F1F1" height="113.1875" id="HonorarioPorIntegrante" rx="2.5" ry="2.5" style="stroke:#181818;stroke-width:0.5;" width="348" x="532" y="286"/><ellipse cx="616.25" cy="302" fill="#ADD1B2" rx="11" ry="11" style="stroke:#181818;stroke-width:1.0;"/><path d="M618.5938,297.6719 C617.6563,297.2344 617.0625,297.0938 616.1875,297.0938 C613.5625,297.0938 611.5625,299.1719 611.5625,301.8906 L611.5625,303.0156 C611.5625,305.5938 613.6719,307.4844 616.5625,307.4844 C617.7813,307.4844 618.9375,307.1875 619.6875,306.6406 C620.2656,306.2344 620.5938,305.7813 620.5938,305.3906 C620.5938,304.9375 620.2031,304.5469 619.7344,304.5469 C619.5156,304.5469 619.3125,304.625 619.125,304.8125 C618.6719,305.2969 618.6719,305.2969 618.4844,305.3906 C618.0625,305.6563 617.375,305.7813 616.6094,305.7813 C614.5625,305.7813 613.2656,304.6875 613.2656,302.9844 L613.2656,301.8906 C613.2656,300.1094 614.5156,298.7969 616.25,298.7969 C616.8281,298.7969 617.4375,298.9531 617.9063,299.2031 C618.3906,299.4844 618.5625,299.7031 618.6563,300.1094 C618.7188,300.5156 618.75,300.6406 618.8906,300.7656 C619.0313,300.9063 619.2656,301.0156 619.4844,301.0156 C619.75,301.0156 620.0156,300.875 620.1875,300.6563 C620.2969,300.5 620.3281,300.3125 620.3281,299.8906 L620.3281,298.4688 C620.3281,298.0313 620.3125,297.9063 620.2188,297.75 C620.0625,297.4844 619.7813,297.3438 619.4844,297.3438 C619.1875,297.3438 618.9844,297.4375 618.7656,297.75 L618.5938,297.6719 Z " fill="#000000"/><text fill="#000000" font-family="sans-serif" font-size="14" lengthAdjust="spacing" textLength="171" x="636.75" y="306.8467">HonorarioPorIntegrante</text><line style="stroke:#181818;stroke-width:0.5;" x1="533" x2="879" y1="318" y2="318"/><rect fill="none" height="6" style="stroke:#C82930;stroke-width:1.0;" width="6" x="540" y="328.6484"/><text fill="#000000" font-family="sans-serif" font-size="14" lengthAdjust="spacing" textLength="128" x="552" y="334.9951">persona : Persona</text><rect fill="none" height="6" style="stroke:#C82930;stroke-width:1.0;" width="6" x="540" y="344.9453"/><text fill="#000000" font-family="sans-serif" font-size="14" lengthAdjust="spacing" textLength="191" x="552" y="351.292">cuantoCorresponde : Float</text><rect fill="none" height="6" style="stroke:#C82930;stroke-width:1.0;" width="6" x="540" y="361.2422"/><text fill="#000000" font-family="sans-serif" font-size="14" lengthAdjust="spacing" textLength="209" x="552" y="367.5889">criterioCobro : CriterioCobro</text><line style="stroke:#181818;stroke-width:0.5;" x1="533" x2="879" y1="374.8906" y2="374.8906"/><rect fill="#F24D5C" height="6" style="stroke:#C82930;stroke-width:1.0;" width="6" x="540" y="385.5391"/><text fill="#000000" font-family="sans-serif" font-size="14" lengthAdjust="spacing" textLength="322" x="552" y="391.8857">cuantoCorresponde(Practica practica) : Float</text></g><!--class HonorarioPorRol--><g id="elem_HonorarioPorRol"><rect codeLine="41" fill="#F1F1F1" height="80.5938" id="HonorarioPorRol" rx="2.5" ry="2.5" style="stroke:#181818;stroke-width:0.5;" width="215" x="1396.5" y="475"/><ellipse cx="1441.25" cy="491" fill="#ADD1B2" rx="11" ry="11" style="stroke:#181818;stroke-width:1.0;"/><path d="M1443.5938,486.6719 C1442.6563,486.2344 1442.0625,486.0938 1441.1875,486.0938 C1438.5625,486.0938 1436.5625,488.1719 1436.5625,490.8906 L1436.5625,492.0156 C1436.5625,494.5938 1438.6719,496.4844 1441.5625,496.4844 C1442.7813,496.4844 1443.9375,496.1875 1444.6875,495.6406 C1445.2656,495.2344 1445.5938,494.7813 1445.5938,494.3906 C1445.5938,493.9375 1445.2031,493.5469 1444.7344,493.5469 C1444.5156,493.5469 1444.3125,493.625 1444.125,493.8125 C1443.6719,494.2969 1443.6719,494.2969 1443.4844,494.3906 C1443.0625,494.6563 1442.375,494.7813 1441.6094,494.7813 C1439.5625,494.7813 1438.2656,493.6875 1438.2656,491.9844 L1438.2656,490.8906 C1438.2656,489.1094 1439.5156,487.7969 1441.25,487.7969 C1441.8281,487.7969 1442.4375,487.9531 1442.9063,488.2031 C1443.3906,488.4844 1443.5625,488.7031 1443.6563,489.1094 C1443.7188,489.5156 1443.75,489.6406 1443.8906,489.7656 C1444.0313,489.9063 1444.2656,490.0156 1444.4844,490.0156 C1444.75,490.0156 1445.0156,489.875 1445.1875,489.6563 C1445.2969,489.5 1445.3281,489.3125 1445.3281,488.8906 L1445.3281,487.4688 C1445.3281,487.0313 1445.3125,486.9063 1445.2188,486.75 C1445.0625,486.4844 1444.7813,486.3438 1444.4844,486.3438 C1444.1875,486.3438 1443.9844,486.4375 1443.7656,486.75 L1443.5938,486.6719 Z " fill="#000000"/><text fill="#000000" font-family="sans-serif" font-size="14" lengthAdjust="spacing" textLength="117" x="1461.75" y="495.8467">HonorarioPorRol</text><line style="stroke:#181818;stroke-width:0.5;" x1="1397.5" x2="1610.5" y1="507" y2="507"/><rect fill="none" height="6" style="stroke:#C82930;stroke-width:1.0;" width="6" x="1404.5" y="517.6484"/><text fill="#000000" font-family="sans-serif" font-size="14" lengthAdjust="spacing" textLength="189" x="1416.5" y="523.9951">rolEnCirugia : RolEnCirugia</text><rect fill="none" height="6" style="stroke:#C82930;stroke-width:1.0;" width="6" x="1404.5" y="533.9453"/><text fill="#000000" font-family="sans-serif" font-size="14" lengthAdjust="spacing" textLength="84" x="1416.5" y="540.292">valor : Float</text><line style="stroke:#181818;stroke-width:0.5;" x1="1397.5" x2="1610.5" y1="547.5938" y2="547.5938"/></g><!--class CriterioCobro--><g id="elem_CriterioCobro"><rect codeLine="46" fill="#F1F1F1" height="64.2969" id="CriterioCobro" rx="2.5" ry="2.5" style="stroke:#181818;stroke-width:0.5;" width="298" x="557" y="483.5"/><ellipse cx="653.75" cy="499.5" fill="#B4A7E5" rx="11" ry="11" style="stroke:#181818;stroke-width:1.0;"/><path d="M654.7031,496.2813 L656.4219,496.2813 C656.8125,496.2813 657,496.25 657.125,496.1719 C657.3906,496.0156 657.5313,495.7344 657.5313,495.4375 C657.5313,495.1719 657.4219,494.9063 657.1875,494.7344 C657.0156,494.625 656.875,494.5938 656.4219,494.5938 L651.2813,494.5938 C650.8438,494.5938 650.7188,494.6094 650.5625,494.7031 C650.3125,494.8594 650.1563,495.1563 650.1563,495.4375 C650.1563,495.7188 650.2969,495.9688 650.5156,496.1406 C650.6719,496.25 650.8594,496.2813 651.2813,496.2813 L653,496.2813 L653,502.7969 L651.2813,502.7969 C650.8438,502.7969 650.7188,502.8125 650.5625,502.9219 C650.3125,503.0781 650.1563,503.3594 650.1563,503.6563 C650.1563,503.9063 650.2969,504.1719 650.5156,504.3281 C650.6719,504.4531 650.875,504.5 651.2813,504.5 L656.4219,504.5 C657.1719,504.5 657.5313,504.2188 657.5313,503.6563 C657.5313,503.375 657.4219,503.125 657.1875,502.9531 C657.0156,502.8281 656.875,502.7969 656.4219,502.7969 L654.7031,502.7969 L654.7031,496.2813 Z " fill="#000000"/><text fill="#000000" font-family="sans-serif" font-size="14" font-style="italic" lengthAdjust="spacing" textLength="96" x="674.25" y="504.3467">CriterioCobro</text><line style="stroke:#181818;stroke-width:0.5;" x1="558" x2="854" y1="515.5" y2="515.5"/><line style="stroke:#181818;stroke-width:0.5;" x1="558" x2="854" y1="523.5" y2="523.5"/><rect fill="#F24D5C" height="6" style="stroke:#C82930;stroke-width:1.0;" width="6" x="565" y="534.1484"/><text fill="#000000" font-family="sans-serif" font-size="14" lengthAdjust="spacing" textLength="272" x="577" y="540.4951">cuantoCobra(Practica practica) : Float</text></g><!--class CobrarPorPorcentaje--><g id="elem_CobrarPorPorcentaje"><rect codeLine="50" fill="#F1F1F1" height="48" id="CobrarPorPorcentaje" rx="2.5" ry="2.5" style="stroke:#181818;stroke-width:0.5;" width="183" x="545.5" y="664.5"/><ellipse cx="560.5" cy="680.5" fill="#ADD1B2" rx="11" ry="11" style="stroke:#181818;stroke-width:1.0;"/><path d="M562.8438,676.1719 C561.9063,675.7344 561.3125,675.5938 560.4375,675.5938 C557.8125,675.5938 555.8125,677.6719 555.8125,680.3906 L555.8125,681.5156 C555.8125,684.0938 557.9219,685.9844 560.8125,685.9844 C562.0313,685.9844 563.1875,685.6875 563.9375,685.1406 C564.5156,684.7344 564.8438,684.2813 564.8438,683.8906 C564.8438,683.4375 564.4531,683.0469 563.9844,683.0469 C563.7656,683.0469 563.5625,683.125 563.375,683.3125 C562.9219,683.7969 562.9219,683.7969 562.7344,683.8906 C562.3125,684.1563 561.625,684.2813 560.8594,684.2813 C558.8125,684.2813 557.5156,683.1875 557.5156,681.4844 L557.5156,680.3906 C557.5156,678.6094 558.7656,677.2969 560.5,677.2969 C561.0781,677.2969 561.6875,677.4531 562.1563,677.7031 C562.6406,677.9844 562.8125,678.2031 562.9063,678.6094 C562.9688,679.0156 563,679.1406 563.1406,679.2656 C563.2813,679.4063 563.5156,679.5156 563.7344,679.5156 C564,679.5156 564.2656,679.375 564.4375,679.1563 C564.5469,679 564.5781,678.8125 564.5781,678.3906 L564.5781,676.9688 C564.5781,676.5313 564.5625,676.4063 564.4688,676.25 C564.3125,675.9844 564.0313,675.8438 563.7344,675.8438 C563.4375,675.8438 563.2344,675.9375 563.0156,676.25 L562.8438,676.1719 Z " fill="#000000"/><text fill="#000000" font-family="sans-serif" font-size="14" lengthAdjust="spacing" textLength="151" x="574.5" y="685.3467">CobrarPorPorcentaje</text><line style="stroke:#181818;stroke-width:0.5;" x1="546.5" x2="727.5" y1="696.5" y2="696.5"/><line style="stroke:#181818;stroke-width:0.5;" x1="546.5" x2="727.5" y1="704.5" y2="704.5"/></g><!--class CobrarPorMonto--><g id="elem_CobrarPorMonto"><rect codeLine="51" fill="#F1F1F1" height="48" id="CobrarPorMonto" rx="2.5" ry="2.5" style="stroke:#181818;stroke-width:0.5;" width="151" x="763.5" y="664.5"/><ellipse cx="778.5" cy="680.5" fill="#ADD1B2" rx="11" ry="11" style="stroke:#181818;stroke-width:1.0;"/><path d="M780.8438,676.1719 C779.9063,675.7344 779.3125,675.5938 778.4375,675.5938 C775.8125,675.5938 773.8125,677.6719 773.8125,680.3906 L773.8125,681.5156 C773.8125,684.0938 775.9219,685.9844 778.8125,685.9844 C780.0313,685.9844 781.1875,685.6875 781.9375,685.1406 C782.5156,684.7344 782.8438,684.2813 782.8438,683.8906 C782.8438,683.4375 782.4531,683.0469 781.9844,683.0469 C781.7656,683.0469 781.5625,683.125 781.375,683.3125 C780.9219,683.7969 780.9219,683.7969 780.7344,683.8906 C780.3125,684.1563 779.625,684.2813 778.8594,684.2813 C776.8125,684.2813 775.5156,683.1875 775.5156,681.4844 L775.5156,680.3906 C775.5156,678.6094 776.7656,677.2969 778.5,677.2969 C779.0781,677.2969 779.6875,677.4531 780.1563,677.7031 C780.6406,677.9844 780.8125,678.2031 780.9063,678.6094 C780.9688,679.0156 781,679.1406 781.1406,679.2656 C781.2813,679.4063 781.5156,679.5156 781.7344,679.5156 C782,679.5156 782.2656,679.375 782.4375,679.1563 C782.5469,679 782.5781,678.8125 782.5781,678.3906 L782.5781,676.9688 C782.5781,676.5313 782.5625,676.4063 782.4688,676.25 C782.3125,675.9844 782.0313,675.8438 781.7344,675.8438 C781.4375,675.8438 781.2344,675.9375 781.0156,676.25 L780.8438,676.1719 Z " fill="#000000"/><text fill="#000000" font-family="sans-serif" font-size="14" lengthAdjust="spacing" textLength="119" x="792.5" y="685.3467">CobrarPorMonto</text><line style="stroke:#181818;stroke-width:0.5;" x1="764.5" x2="913.5" y1="696.5" y2="696.5"/><line style="stroke:#181818;stroke-width:0.5;" x1="764.5" x2="913.5" y1="704.5" y2="704.5"/></g><!--class Equipo--><g id="elem_Equipo"><rect codeLine="53" fill="#F1F1F1" height="64.2969" id="Equipo" rx="2.5" ry="2.5" style="stroke:#181818;stroke-width:0.5;" width="228" x="1137" y="310.5"/><ellipse cx="1222.25" cy="326.5" fill="#ADD1B2" rx="11" ry="11" style="stroke:#181818;stroke-width:1.0;"/><path d="M1224.5938,322.1719 C1223.6563,321.7344 1223.0625,321.5938 1222.1875,321.5938 C1219.5625,321.5938 1217.5625,323.6719 1217.5625,326.3906 L1217.5625,327.5156 C1217.5625,330.0938 1219.6719,331.9844 1222.5625,331.9844 C1223.7813,331.9844 1224.9375,331.6875 1225.6875,331.1406 C1226.2656,330.7344 1226.5938,330.2813 1226.5938,329.8906 C1226.5938,329.4375 1226.2031,329.0469 1225.7344,329.0469 C1225.5156,329.0469 1225.3125,329.125 1225.125,329.3125 C1224.6719,329.7969 1224.6719,329.7969 1224.4844,329.8906 C1224.0625,330.1563 1223.375,330.2813 1222.6094,330.2813 C1220.5625,330.2813 1219.2656,329.1875 1219.2656,327.4844 L1219.2656,326.3906 C1219.2656,324.6094 1220.5156,323.2969 1222.25,323.2969 C1222.8281,323.2969 1223.4375,323.4531 1223.9063,323.7031 C1224.3906,323.9844 1224.5625,324.2031 1224.6563,324.6094 C1224.7188,325.0156 1224.75,325.1406 1224.8906,325.2656 C1225.0313,325.4063 1225.2656,325.5156 1225.4844,325.5156 C1225.75,325.5156 1226.0156,325.375 1226.1875,325.1563 C1226.2969,325 1226.3281,324.8125 1226.3281,324.3906 L1226.3281,322.9688 C1226.3281,322.5313 1226.3125,322.4063 1226.2188,322.25 C1226.0625,321.9844 1225.7813,321.8438 1225.4844,321.8438 C1225.1875,321.8438 1224.9844,321.9375 1224.7656,322.25 L1224.5938,322.1719 Z " fill="#000000"/><text fill="#000000" font-family="sans-serif" font-size="14" lengthAdjust="spacing" textLength="49" x="1242.75" y="331.3467">Equipo</text><line style="stroke:#181818;stroke-width:0.5;" x1="1138" x2="1364" y1="342.5" y2="342.5"/><rect fill="none" height="6" style="stroke:#C82930;stroke-width:1.0;" width="6" x="1145" y="353.1484"/><text fill="#000000" font-family="sans-serif" font-size="14" lengthAdjust="spacing" textLength="202" x="1157" y="359.4951">integrantes : List&lt;Persona&gt;</text><line style="stroke:#181818;stroke-width:0.5;" x1="1138" x2="1364" y1="366.7969" y2="366.7969"/></g><!--class EstadoPago--><g id="elem_EstadoPago"><rect codeLine="57" fill="#F1F1F1" height="113.1875" id="EstadoPago" rx="2.5" ry="2.5" style="stroke:#181818;stroke-width:0.5;" width="116" x="915" y="286"/><ellipse cx="930" cy="302" fill="#EB937F" rx="11" ry="11" style="stroke:#181818;stroke-width:1.0;"/><path d="M928.7969,302.875 L930.25,302.875 L930.25,302.9844 C930.25,303.3906 930.2813,303.5469 930.3594,303.7031 C930.5156,303.9531 930.7969,304.1094 931.0938,304.1094 C931.3438,304.1094 931.6094,303.9688 931.7656,303.75 C931.8906,303.5938 931.9219,303.4375 931.9219,302.9844 L931.9219,301.0625 C931.9219,300.9063 931.9219,300.8594 931.9063,300.7031 C931.8438,300.2344 931.5313,299.9219 931.0781,299.9219 C930.8281,299.9219 930.5625,300.0625 930.3906,300.2813 C930.2813,300.4531 930.25,300.6094 930.25,301.0625 L930.25,301.1875 L928.7969,301.1875 L928.7969,298.7813 L932.7813,298.7813 L932.7813,299.6406 C932.7813,300.0469 932.8125,300.2188 932.8906,300.375 C933.0625,300.625 933.3438,300.7813 933.625,300.7813 C933.8906,300.7813 934.1563,300.6406 934.3281,300.4219 C934.4375,300.25 934.4688,300.1094 934.4688,299.6406 L934.4688,297.0938 L926.8438,297.0938 C926.4063,297.0938 926.2813,297.1094 926.125,297.2031 C925.875,297.3594 925.7188,297.6563 925.7188,297.9375 C925.7188,298.2188 925.8594,298.4688 926.0781,298.6406 C926.2344,298.75 926.4219,298.7813 926.8438,298.7813 L927.0938,298.7813 L927.0938,305.2969 L926.8438,305.2969 C926.4375,305.2969 926.2813,305.3125 926.125,305.4219 C925.875,305.5938 925.7188,305.8594 925.7188,306.1563 C925.7188,306.4219 925.8594,306.6719 926.0781,306.8281 C926.2188,306.9531 926.4531,307 926.8438,307 L934.8438,307 L934.8438,304.4219 C934.8438,303.9844 934.8125,303.8438 934.7344,303.6875 C934.5625,303.4375 934.2813,303.2813 934,303.2813 C933.7344,303.2813 933.4688,303.3906 933.2969,303.6406 C933.1875,303.7969 933.1563,303.9375 933.1563,304.4219 L933.1563,305.2969 L928.7969,305.2969 L928.7969,302.875 Z " fill="#000000"/><text fill="#000000" font-family="sans-serif" font-size="14" lengthAdjust="spacing" textLength="84" x="944" y="306.8467">EstadoPago</text><line style="stroke:#181818;stroke-width:0.5;" x1="916" x2="1030" y1="318" y2="318"/><text fill="#000000" font-family="sans-serif" font-size="14" lengthAdjust="spacing" textLength="81" x="921" y="334.9951">En_ESPERA</text><text fill="#000000" font-family="sans-serif" font-size="14" lengthAdjust="spacing" textLength="73" x="921" y="351.292">COBRADO</text><text fill="#000000" font-family="sans-serif" font-size="14" lengthAdjust="spacing" textLength="88" x="921" y="367.5889">FACTURADO</text><text fill="#000000" font-family="sans-serif" font-size="14" lengthAdjust="spacing" textLength="83" x="921" y="383.8857">REPARTIDO</text><line style="stroke:#181818;stroke-width:0.5;" x1="916" x2="1030" y1="391.1875" y2="391.1875"/></g><!--class Practica--><g id="elem_Practica"><rect codeLine="64" fill="#F1F1F1" height="129.4844" id="Practica" rx="2.5" ry="2.5" style="stroke:#181818;stroke-width:0.5;" width="321" x="1400.5" y="278"/><ellipse cx="1527.75" cy="294" fill="#ADD1B2" rx="11" ry="11" style="stroke:#181818;stroke-width:1.0;"/><path d="M1530.0938,289.6719 C1529.1563,289.2344 1528.5625,289.0938 1527.6875,289.0938 C1525.0625,289.0938 1523.0625,291.1719 1523.0625,293.8906 L1523.0625,295.0156 C1523.0625,297.5938 1525.1719,299.4844 1528.0625,299.4844 C1529.2813,299.4844 1530.4375,299.1875 1531.1875,298.6406 C1531.7656,298.2344 1532.0938,297.7813 1532.0938,297.3906 C1532.0938,296.9375 1531.7031,296.5469 1531.2344,296.5469 C1531.0156,296.5469 1530.8125,296.625 1530.625,296.8125 C1530.1719,297.2969 1530.1719,297.2969 1529.9844,297.3906 C1529.5625,297.6563 1528.875,297.7813 1528.1094,297.7813 C1526.0625,297.7813 1524.7656,296.6875 1524.7656,294.9844 L1524.7656,293.8906 C1524.7656,292.1094 1526.0156,290.7969 1527.75,290.7969 C1528.3281,290.7969 1528.9375,290.9531 1529.4063,291.2031 C1529.8906,291.4844 1530.0625,291.7031 1530.1563,292.1094 C1530.2188,292.5156 1530.25,292.6406 1530.3906,292.7656 C1530.5313,292.9063 1530.7656,293.0156 1530.9844,293.0156 C1531.25,293.0156 1531.5156,292.875 1531.6875,292.6563 C1531.7969,292.5 1531.8281,292.3125 1531.8281,291.8906 L1531.8281,290.4688 C1531.8281,290.0313 1531.8125,289.9063 1531.7188,289.75 C1531.5625,289.4844 1531.2813,289.3438 1530.9844,289.3438 C1530.6875,289.3438 1530.4844,289.4375 1530.2656,289.75 L1530.0938,289.6719 Z " fill="#000000"/><text fill="#000000" font-family="sans-serif" font-size="14" lengthAdjust="spacing" textLength="58" x="1548.25" y="298.8467">Practica</text><line style="stroke:#181818;stroke-width:0.5;" x1="1401.5" x2="1720.5" y1="310" y2="310"/><rect fill="none" height="6" style="stroke:#C82930;stroke-width:1.0;" width="6" x="1408.5" y="320.6484"/><text fill="#000000" font-family="sans-serif" font-size="14" lengthAdjust="spacing" textLength="87" x="1420.5" y="326.9951">lugar : Lugar</text><rect fill="none" height="6" style="stroke:#C82930;stroke-width:1.0;" width="6" x="1408.5" y="336.9453"/><text fill="#000000" font-family="sans-serif" font-size="14" lengthAdjust="spacing" textLength="191" x="1420.5" y="343.292">especialidad : Especialidad</text><rect fill="none" height="6" style="stroke:#C82930;stroke-width:1.0;" width="6" x="1408.5" y="353.2422"/><text fill="#000000" font-family="sans-serif" font-size="14" lengthAdjust="spacing" textLength="165" x="1420.5" y="359.5889">obraSocial : ObraSocial</text><rect fill="none" height="6" style="stroke:#C82930;stroke-width:1.0;" width="6" x="1408.5" y="369.5391"/><text fill="#000000" font-family="sans-serif" font-size="14" lengthAdjust="spacing" textLength="95" x="1420.5" y="375.8857">precio : Float</text><rect fill="none" height="6" style="stroke:#C82930;stroke-width:1.0;" width="6" x="1408.5" y="385.8359"/><text fill="#000000" font-family="sans-serif" font-size="14" lengthAdjust="spacing" textLength="295" x="1420.5" y="392.1826">honoariosPorRol : List&lt;HonorarioPorRol&gt;</text><line style="stroke:#181818;stroke-width:0.5;" x1="1401.5" x2="1720.5" y1="399.4844" y2="399.4844"/></g><!--class Persona--><g id="elem_Persona"><rect codeLine="72" fill="#F1F1F1" height="96.8906" id="Persona" rx="2.5" ry="2.5" style="stroke:#181818;stroke-width:0.5;" width="215" x="1033.5" y="467"/><ellipse cx="1108.25" cy="483" fill="#ADD1B2" rx="11" ry="11" style="stroke:#181818;stroke-width:1.0;"/><path d="M1110.5938,478.6719 C1109.6563,478.2344 1109.0625,478.0938 1108.1875,478.0938 C1105.5625,478.0938 1103.5625,480.1719 1103.5625,482.8906 L1103.5625,484.0156 C1103.5625,486.5938 1105.6719,488.4844 1108.5625,488.4844 C1109.7813,488.4844 1110.9375,488.1875 1111.6875,487.6406 C1112.2656,487.2344 1112.5938,486.7813 1112.5938,486.3906 C1112.5938,485.9375 1112.2031,485.5469 1111.7344,485.5469 C1111.5156,485.5469 1111.3125,485.625 1111.125,485.8125 C1110.6719,486.2969 1110.6719,486.2969 1110.4844,486.3906 C1110.0625,486.6563 1109.375,486.7813 1108.6094,486.7813 C1106.5625,486.7813 1105.2656,485.6875 1105.2656,483.9844 L1105.2656,482.8906 C1105.2656,481.1094 1106.5156,479.7969 1108.25,479.7969 C1108.8281,479.7969 1109.4375,479.9531 1109.9063,480.2031 C1110.3906,480.4844 1110.5625,480.7031 1110.6563,481.1094 C1110.7188,481.5156 1110.75,481.6406 1110.8906,481.7656 C1111.0313,481.9063 1111.2656,482.0156 1111.4844,482.0156 C1111.75,482.0156 1112.0156,481.875 1112.1875,481.6563 C1112.2969,481.5 1112.3281,481.3125 1112.3281,480.8906 L1112.3281,479.4688 C1112.3281,479.0313 1112.3125,478.9063 1112.2188,478.75 C1112.0625,478.4844 1111.7813,478.3438 1111.4844,478.3438 C1111.1875,478.3438 1110.9844,478.4375 1110.7656,478.75 L1110.5938,478.6719 Z " fill="#000000"/><text fill="#000000" font-family="sans-serif" font-size="14" lengthAdjust="spacing" textLength="57" x="1128.75" y="487.8467">Persona</text><line style="stroke:#181818;stroke-width:0.5;" x1="1034.5" x2="1247.5" y1="499" y2="499"/><rect fill="none" height="6" style="stroke:#C82930;stroke-width:1.0;" width="6" x="1041.5" y="509.6484"/><text fill="#000000" font-family="sans-serif" font-size="14" lengthAdjust="spacing" textLength="110" x="1053.5" y="515.9951">nombre: String</text><rect fill="none" height="6" style="stroke:#C82930;stroke-width:1.0;" width="6" x="1041.5" y="525.9453"/><text fill="#000000" font-family="sans-serif" font-size="14" lengthAdjust="spacing" textLength="189" x="1053.5" y="532.292">rolEnCirugia : RolEnCirugia</text><rect fill="none" height="6" style="stroke:#C82930;stroke-width:1.0;" width="6" x="1041.5" y="542.2422"/><text fill="#000000" font-family="sans-serif" font-size="14" lengthAdjust="spacing" textLength="114" x="1053.5" y="548.5889">usuario : Usuario</text><line style="stroke:#181818;stroke-width:0.5;" x1="1034.5" x2="1247.5" y1="555.8906" y2="555.8906"/></g><!--class RolEnCirugia--><g id="elem_RolEnCirugia"><rect codeLine="78" fill="#F1F1F1" height="129.4844" id="RolEnCirugia" rx="2.5" ry="2.5" style="stroke:#181818;stroke-width:0.5;" width="161" x="1357.5" y="624"/><ellipse cx="1390.05" cy="640" fill="#EB937F" rx="11" ry="11" style="stroke:#181818;stroke-width:1.0;"/><path d="M1388.8469,640.875 L1390.3,640.875 L1390.3,640.9844 C1390.3,641.3906 1390.3313,641.5469 1390.4094,641.7031 C1390.5656,641.9531 1390.8469,642.1094 1391.1438,642.1094 C1391.3938,642.1094 1391.6594,641.9688 1391.8156,641.75 C1391.9406,641.5938 1391.9719,641.4375 1391.9719,640.9844 L1391.9719,639.0625 C1391.9719,638.9063 1391.9719,638.8594 1391.9563,638.7031 C1391.8938,638.2344 1391.5813,637.9219 1391.1281,637.9219 C1390.8781,637.9219 1390.6125,638.0625 1390.4406,638.2813 C1390.3313,638.4531 1390.3,638.6094 1390.3,639.0625 L1390.3,639.1875 L1388.8469,639.1875 L1388.8469,636.7813 L1392.8313,636.7813 L1392.8313,637.6406 C1392.8313,638.0469 1392.8625,638.2188 1392.9406,638.375 C1393.1125,638.625 1393.3938,638.7813 1393.675,638.7813 C1393.9406,638.7813 1394.2063,638.6406 1394.3781,638.4219 C1394.4875,638.25 1394.5188,638.1094 1394.5188,637.6406 L1394.5188,635.0938 L1386.8938,635.0938 C1386.4563,635.0938 1386.3313,635.1094 1386.175,635.2031 C1385.925,635.3594 1385.7688,635.6563 1385.7688,635.9375 C1385.7688,636.2188 1385.9094,636.4688 1386.1281,636.6406 C1386.2844,636.75 1386.4719,636.7813 1386.8938,636.7813 L1387.1438,636.7813 L1387.1438,643.2969 L1386.8938,643.2969 C1386.4875,643.2969 1386.3313,643.3125 1386.175,643.4219 C1385.925,643.5938 1385.7688,643.8594 1385.7688,644.1563 C1385.7688,644.4219 1385.9094,644.6719 1386.1281,644.8281 C1386.2688,644.9531 1386.5031,645 1386.8938,645 L1394.8938,645 L1394.8938,642.4219 C1394.8938,641.9844 1394.8625,641.8438 1394.7844,641.6875 C1394.6125,641.4375 1394.3313,641.2813 1394.05,641.2813 C1393.7844,641.2813 1393.5188,641.3906 1393.3469,641.6406 C1393.2375,641.7969 1393.2063,641.9375 1393.2063,642.4219 L1393.2063,643.2969 L1388.8469,643.2969 L1388.8469,640.875 Z " fill="#000000"/><text fill="#000000" font-family="sans-serif" font-size="14" lengthAdjust="spacing" textLength="90" x="1407.95" y="644.8467">RolEnCirugia</text><line style="stroke:#181818;stroke-width:0.5;" x1="1358.5" x2="1517.5" y1="656" y2="656"/><text fill="#000000" font-family="sans-serif" font-size="14" lengthAdjust="spacing" textLength="149" x="1363.5" y="672.9951">CIRUJANO_PRINCIPAL</text><text fill="#000000" font-family="sans-serif" font-size="14" lengthAdjust="spacing" textLength="140" x="1363.5" y="689.292">CIRUJANO_AUXILIAR</text><text fill="#000000" font-family="sans-serif" font-size="14" lengthAdjust="spacing" textLength="97" x="1363.5" y="705.5889">ANESTESISTA</text><text fill="#000000" font-family="sans-serif" font-size="14" lengthAdjust="spacing" textLength="111" x="1363.5" y="721.8857">PERFUSIONISTA</text><text fill="#000000" font-family="sans-serif" font-size="14" lengthAdjust="spacing" textLength="133" x="1363.5" y="738.1826">INSTRUMENTADOR</text><line style="stroke:#181818;stroke-width:0.5;" x1="1358.5" x2="1517.5" y1="745.4844" y2="745.4844"/></g><!--class RolEnSistema--><g id="elem_RolEnSistema"><rect codeLine="86" fill="#F1F1F1" height="80.5938" id="RolEnSistema" rx="2.5" ry="2.5" style="stroke:#181818;stroke-width:0.5;" width="134" x="1074" y="813"/><ellipse cx="1090.35" cy="829" fill="#EB937F" rx="11" ry="11" style="stroke:#181818;stroke-width:1.0;"/><path d="M1089.1469,829.875 L1090.6,829.875 L1090.6,829.9844 C1090.6,830.3906 1090.6313,830.5469 1090.7094,830.7031 C1090.8656,830.9531 1091.1469,831.1094 1091.4438,831.1094 C1091.6938,831.1094 1091.9594,830.9688 1092.1156,830.75 C1092.2406,830.5938 1092.2719,830.4375 1092.2719,829.9844 L1092.2719,828.0625 C1092.2719,827.9063 1092.2719,827.8594 1092.2563,827.7031 C1092.1938,827.2344 1091.8813,826.9219 1091.4281,826.9219 C1091.1781,826.9219 1090.9125,827.0625 1090.7406,827.2813 C1090.6313,827.4531 1090.6,827.6094 1090.6,828.0625 L1090.6,828.1875 L1089.1469,828.1875 L1089.1469,825.7813 L1093.1313,825.7813 L1093.1313,826.6406 C1093.1313,827.0469 1093.1625,827.2188 1093.2406,827.375 C1093.4125,827.625 1093.6938,827.7813 1093.975,827.7813 C1094.2406,827.7813 1094.5063,827.6406 1094.6781,827.4219 C1094.7875,827.25 1094.8188,827.1094 1094.8188,826.6406 L1094.8188,824.0938 L1087.1938,824.0938 C1086.7563,824.0938 1086.6313,824.1094 1086.475,824.2031 C1086.225,824.3594 1086.0688,824.6563 1086.0688,824.9375 C1086.0688,825.2188 1086.2094,825.4688 1086.4281,825.6406 C1086.5844,825.75 1086.7719,825.7813 1087.1938,825.7813 L1087.4438,825.7813 L1087.4438,832.2969 L1087.1938,832.2969 C1086.7875,832.2969 1086.6313,832.3125 1086.475,832.4219 C1086.225,832.5938 1086.0688,832.8594 1086.0688,833.1563 C1086.0688,833.4219 1086.2094,833.6719 1086.4281,833.8281 C1086.5688,833.9531 1086.8031,834 1087.1938,834 L1095.1938,834 L1095.1938,831.4219 C1095.1938,830.9844 1095.1625,830.8438 1095.0844,830.6875 C1094.9125,830.4375 1094.6313,830.2813 1094.35,830.2813 C1094.0844,830.2813 1093.8188,830.3906 1093.6469,830.6406 C1093.5375,830.7969 1093.5063,830.9375 1093.5063,831.4219 L1093.5063,832.2969 L1089.1469,832.2969 L1089.1469,829.875 Z " fill="#000000"/><text fill="#000000" font-family="sans-serif" font-size="14" lengthAdjust="spacing" textLength="99" x="1104.65" y="833.8467">RolEnSistema</text><line style="stroke:#181818;stroke-width:0.5;" x1="1075" x2="1207" y1="845" y2="845"/><text fill="#000000" font-family="sans-serif" font-size="14" lengthAdjust="spacing" textLength="122" x="1080" y="861.9951">JEFE_DE_CIRUGIA</text><text fill="#000000" font-family="sans-serif" font-size="14" lengthAdjust="spacing" textLength="79" x="1080" y="878.292">EMPLEADO</text><line style="stroke:#181818;stroke-width:0.5;" x1="1075" x2="1207" y1="885.5938" y2="885.5938"/></g><!--link HonorarioPorRol to RolEnCirugia--><g id="link_HonorarioPorRol_RolEnCirugia"><path codeLine="91" d="M1488.69,556.161 C1480.92,576.288 1473.4606,595.6295 1464.6906,618.3495 " fill="none" id="HonorarioPorRol-to-RolEnCirugia" style="stroke:#181818;stroke-width:1.0;"/><polygon fill="#181818" points="1462.53,623.947,1469.5026,616.9912,1464.3305,619.2824,1462.0393,614.1104,1462.53,623.947" style="stroke:#181818;stroke-width:1.0;"/></g><!--link HonorarioPorIntegrante to Persona--><g id="link_HonorarioPorIntegrante_Persona"><path codeLine="93" d="M847.232,399.019 C907.64,422.765 971.45,447.8487 1027.616,469.9297 " fill="none" id="HonorarioPorIntegrante-to-Persona" style="stroke:#181818;stroke-width:1.0;"/><polygon fill="#181818" points="1033.2,472.125,1026.2876,465.1094,1028.5467,470.2956,1023.3605,472.5547,1033.2,472.125" style="stroke:#181818;stroke-width:1.0;"/></g><!--link HonorarioPorIntegrante to CriterioCobro--><g id="link_HonorarioPorIntegrante_CriterioCobro"><path codeLine="94" d="M706,399.019 C706,426.91 706,453.675 706,477.166 " fill="none" id="HonorarioPorIntegrante-to-CriterioCobro" style="stroke:#181818;stroke-width:1.0;"/><polygon fill="#181818" points="706,483.166,710,474.166,706,478.166,702,474.166,706,483.166" style="stroke:#181818;stroke-width:1.0;"/></g><!--reverse link CriterioCobro to CobrarPorMonto--><g id="link_CriterioCobro_CobrarPorMonto"><path codeLine="96" d="M741.4451,562.0722 C767.6181,595.7222 797.521,634.169 820.944,664.285 " fill="none" id="CriterioCobro-backto-CobrarPorMonto" style="stroke:#181818;stroke-width:1.0;stroke-dasharray:7.0,7.0;"/><polygon fill="none" points="730.394,547.864,736.7091,565.7559,746.1812,558.3885,730.394,547.864" style="stroke:#181818;stroke-width:1.0;"/></g><!--reverse link CriterioCobro to CobrarPorPorcentaje--><g id="link_CriterioCobro_CobrarPorPorcentaje"><path codeLine="97" d="M686.6085,564.5563 C673.0305,598.2063 658.519,634.169 646.367,664.285 " fill="none" id="CriterioCobro-backto-CobrarPorPorcentaje" style="stroke:#181818;stroke-width:1.0;stroke-dasharray:7.0,7.0;"/><polygon fill="none" points="693.344,547.864,681.0444,562.3112,692.1726,566.8015,693.344,547.864" style="stroke:#181818;stroke-width:1.0;"/></g><!--link Practica to HonorarioPorRol--><g id="link_Practica_HonorarioPorRol"><path codeLine="99" d="M1539.78,407.174 C1532.21,429.869 1525.8079,449.0701 1519.1079,469.1641 " fill="none" id="Practica-to-HonorarioPorRol" style="stroke:#181818;stroke-width:1.0;"/><polygon fill="#181818" points="1517.21,474.856,1523.8514,467.5834,1518.7916,470.1127,1516.2622,465.0529,1517.21,474.856" style="stroke:#181818;stroke-width:1.0;"/><text fill="#000000" font-family="sans-serif" font-size="13" lengthAdjust="spacing" textLength="7" x="1511.8182" y="463.9937">*</text></g><!--link Persona to Usuario--><g id="link_Persona_Usuario"><path codeLine="101" d="M1141,564.133 C1141,585.182 1141,604.069 1141,625.957 " fill="none" id="Persona-to-Usuario" style="stroke:#181818;stroke-width:1.0;"/><polygon fill="#181818" points="1141,631.957,1145,622.957,1141,626.957,1137,622.957,1141,631.957" style="stroke:#181818;stroke-width:1.0;"/></g><!--link Persona to RolEnCirugia--><g id="link_Persona_RolEnCirugia"><path codeLine="102" d="M1223.73,564.133 C1265.44,588.147 1310.6202,614.1613 1352.0502,638.0143 " fill="none" id="Persona-to-RolEnCirugia" style="stroke:#181818;stroke-width:1.0;"/><polygon fill="#181818" points="1357.25,641.008,1351.4462,633.0509,1352.9169,638.5132,1347.4545,639.9839,1357.25,641.008" style="stroke:#181818;stroke-width:1.0;"/></g><!--link Usuario to RolEnSistema--><g id="link_Usuario_RolEnSistema"><path codeLine="104" d="M1141,745.139 C1141,767.366 1141,786.455 1141,806.7878 " fill="none" id="Usuario-to-RolEnSistema" style="stroke:#181818;stroke-width:1.0;"/><polygon fill="#181818" points="1141,812.7878,1145,803.7878,1141,807.7878,1137,803.7878,1141,812.7878" style="stroke:#181818;stroke-width:1.0;"/></g><!--link Equipo to Persona--><g id="link_Equipo_Persona"><path codeLine="106" d="M1230.82,374.864 C1214.26,400.608 1193.7967,432.4293 1174.8867,461.8173 " fill="none" id="Equipo-to-Persona" style="stroke:#181818;stroke-width:1.0;"/><polygon fill="#181818" points="1171.64,466.863,1179.8738,461.4589,1174.3456,462.6583,1173.1463,457.13,1171.64,466.863" style="stroke:#181818;stroke-width:1.0;"/><text fill="#000000" font-family="sans-serif" font-size="13" lengthAdjust="spacing" textLength="7" x="1168.4566" y="456.0527">*</text></g><!--link Cirugia to Centro--><g id="link_Cirugia_Centro"><path codeLine="108" d="M488.262,161.697 C386.675,188.63 265.971,227.15 164,278 C146.429,286.762 133.3968,295.3673 118.5198,306.7783 " fill="none" id="Cirugia-to-Centro" style="stroke:#181818;stroke-width:1.0;"/><polygon fill="#181818" points="113.759,310.43,123.3347,308.1264,117.7263,307.387,118.4658,301.7786,113.759,310.43" style="stroke:#181818;stroke-width:1.0;"/></g><!--link Cirugia to ObraSocial--><g id="link_Cirugia_ObraSocial"><path codeLine="109" d="M488.282,202.057 C438.235,224.873 385.951,250.746 339,278 C322.666,287.482 310.4825,295.7707 295.8995,306.6857 " fill="none" id="Cirugia-to-ObraSocial" style="stroke:#181818;stroke-width:1.0;"/><polygon fill="#181818" points="291.096,310.281,300.6981,308.0904,295.0989,307.2849,295.9044,301.6857,291.096,310.281" style="stroke:#181818;stroke-width:1.0;"/></g><!--link Cirugia to Especialidad--><g id="link_Cirugia_Especialidad"><path codeLine="110" d="M577.932,218.158 C536.819,251.755 499.019,282.6464 469.652,306.6444 " fill="none" id="Cirugia-to-Especialidad" style="stroke:#181818;stroke-width:1.0;"/><polygon fill="#181818" points="465.006,310.441,474.5061,307.8434,468.8777,307.2771,469.444,301.6487,465.006,310.441" style="stroke:#181818;stroke-width:1.0;"/></g><!--link Cirugia to Practica--><g id="link_Cirugia_Practica"><path codeLine="111" d="M923.636,160.309 C1057.14,190.521 1231.04,232.569 1383,278 C1388.66,279.692 1388.6775,279.6553 1394.4675,281.4803 " fill="none" id="Cirugia-to-Practica" style="stroke:#181818;stroke-width:1.0;"/><polygon fill="#181818" points="1400.19,283.284,1392.8088,276.7635,1395.4213,281.7809,1390.4038,284.3934,1400.19,283.284" style="stroke:#181818;stroke-width:1.0;"/></g><!--link Cirugia to EstadoPago--><g id="link_Cirugia_EstadoPago"><path codeLine="112" d="M828.56,218.158 C858.582,243.795 884.7852,266.1707 910.1652,287.8437 " fill="none" id="Cirugia-to-EstadoPago" style="stroke:#181818;stroke-width:1.0;"/><polygon fill="#181818" points="914.728,291.74,910.4814,282.8537,910.9257,288.4931,905.2863,288.9374,914.728,291.74" style="stroke:#181818;stroke-width:1.0;"/></g><!--link Cirugia to Persona--><g id="link_Cirugia_Persona"><path codeLine="113" d="M923.88,187.594 C969.635,210.953 1014.44,240.698 1049,278 C1098.56,331.484 1121.2802,408.7812 1132.0102,460.9042 " fill="none" id="Cirugia-to-Persona" style="stroke:#181818;stroke-width:1.0;"/><polygon fill="#181818" points="1133.22,466.781,1135.3232,457.1593,1132.2118,461.8837,1127.4875,458.7724,1133.22,466.781" style="stroke:#181818;stroke-width:1.0;"/><text fill="#000000" font-family="sans-serif" font-size="13" lengthAdjust="spacing" textLength="7" x="1124.6338" y="455.9591">*</text></g><!--link Cirugia to HonorarioPorIntegrante--><g id="link_Cirugia_HonorarioPorIntegrante"><path codeLine="114" d="M706,218.158 C706,241.571 706,259.513 706,279.998 " fill="none" id="Cirugia-to-HonorarioPorIntegrante" style="stroke:#181818;stroke-width:1.0;"/><polygon fill="#181818" points="706,285.998,710,276.998,706,280.998,702,276.998,706,285.998" style="stroke:#181818;stroke-width:1.0;"/><text fill="#000000" font-family="sans-serif" font-size="13" lengthAdjust="spacing" textLength="7" x="698.5516" y="274.8611">*</text></g><!--SRC=[ZLNRZfim47ttLrZxr5RAVi1g5OaIfsML4CH5wbiqIxnPLyHE3VIXs_vxnu2DGMnQAGfuvdYkPuQoWhgcHTs25kgDq9LKbsVD1m5ze5cZXJoZWbz0LBwWLBBHK7Cfm1ThLJ6PYRh12oXFlIFvGqZPEGmvtlNyZGOSvF2i8LEbWEecZDLNRa3Y1AURm53ezYp0O7hl3xJidYXGpXTU71sRh3tpgFEzeVQgyMIgjAqKD9q0oaQK9l5aU4Nf2ozV8O6pGUvK2TK66fwB2wTMcNAq-GlGc9nZkY0QEAd107C7r0ZPyBC6_A_DFIppOy9rhIIiKVjLIQLD7-iDZqRa07JQHEbHknuhjWmm1RpsFaoM_PkXGujQ5IgjiMPAdhXNbbABXgEX40jjSWWdPx9q-uEj7xKr_UWCBaQ8H7kpz1jwRUat757x4ogbVJkcWFe5IZwBoPYYDYWan7-5qo4rne8_motupkUQFGwDSjpzqOfhDmMt-eZckMmlNkFn1fD7bYKi3GWD3v_JO7CWT1k4UT6_fYm9qZp2LnUSJS2ugzepc3BipFEVB7z_EgRyDsn-nOvqZEixGXUuXcAFP4EQu-ZELycxlMpTZXgsbQkK3qJ3OPGMJq5yE2Pf58TH4kmyML1yYtPHa18Qn2pBMHPbEHOLIxijikWGzySeplAqsBCun_AcKqV3SaD7JspBZXjsDCQ_H7YDxPCT2_ekp4f0LwlrD2EoF6yTq8xP3SY4luHCwVpu-_v-Ha9w4p8o6CVJST_ukVjqDvyxH0mBmG1iDtpPD57xTN4Q-tqW_KGuFpPjOadG9TflRL_aaT8NJtZiAznkdgBTOlN5VXnp-N8x_W80]--></g></svg>