<?xml version="1.0" encoding="us-ascii" standalone="no"?><svg xmlns="http://www.w3.org/2000/svg" xmlns:xlink="http://www.w3.org/1999/xlink" contentStyleType="text/css" height="933px" preserveAspectRatio="none" style="width:1326px;height:933px;background:#FFFFFF;" version="1.1" viewBox="0 0 1326 933" width="1326px" zoomAndPan="magnify"><defs/><g><!--class User--><g id="elem_User"><rect codeLine="1" fill="#F1F1F1" height="113.1875" id="User" rx="2.5" ry="2.5" style="stroke:#181818;stroke-width:0.5;" width="209" x="810" y="656.5"/><ellipse cx="894.75" cy="672.5" fill="#ADD1B2" rx="11" ry="11" style="stroke:#181818;stroke-width:1.0;"/><path d="M897.0938,668.1719 C896.1563,667.7344 895.5625,667.5938 894.6875,667.5938 C892.0625,667.5938 890.0625,669.6719 890.0625,672.3906 L890.0625,673.5156 C890.0625,676.0938 892.1719,677.9844 895.0625,677.9844 C896.2813,677.9844 897.4375,677.6875 898.1875,677.1406 C898.7656,676.7344 899.0938,676.2813 899.0938,675.8906 C899.0938,675.4375 898.7031,675.0469 898.2344,675.0469 C898.0156,675.0469 897.8125,675.125 897.625,675.3125 C897.1719,675.7969 897.1719,675.7969 896.9844,675.8906 C896.5625,676.1563 895.875,676.2813 895.1094,676.2813 C893.0625,676.2813 891.7656,675.1875 891.7656,673.4844 L891.7656,672.3906 C891.7656,670.6094 893.0156,669.2969 894.75,669.2969 C895.3281,669.2969 895.9375,669.4531 896.4063,669.7031 C896.8906,669.9844 897.0625,670.2031 897.1563,670.6094 C897.2188,671.0156 897.25,671.1406 897.3906,671.2656 C897.5313,671.4063 897.7656,671.5156 897.9844,671.5156 C898.25,671.5156 898.5156,671.375 898.6875,671.1563 C898.7969,671 898.8281,670.8125 898.8281,670.3906 L898.8281,668.9688 C898.8281,668.5313 898.8125,668.4063 898.7188,668.25 C898.5625,667.9844 898.2813,667.8438 897.9844,667.8438 C897.6875,667.8438 897.4844,667.9375 897.2656,668.25 L897.0938,668.1719 Z " fill="#000000"/><text fill="#000000" font-family="sans-serif" font-size="14" lengthAdjust="spacing" textLength="31" x="915.25" y="677.3467">User</text><line style="stroke:#181818;stroke-width:0.5;" x1="811" x2="1018" y1="688.5" y2="688.5"/><rect fill="none" height="6" style="stroke:#C82930;stroke-width:1.0;" width="6" x="818" y="699.1484"/><text fill="#000000" font-family="sans-serif" font-size="14" lengthAdjust="spacing" textLength="128" x="830" y="705.4951">userName : String</text><rect fill="none" height="6" style="stroke:#C82930;stroke-width:1.0;" width="6" x="818" y="715.4453"/><text fill="#000000" font-family="sans-serif" font-size="14" lengthAdjust="spacing" textLength="96" x="830" y="721.792">email : String</text><rect fill="none" height="6" style="stroke:#C82930;stroke-width:1.0;" width="6" x="818" y="731.7422"/><text fill="#000000" font-family="sans-serif" font-size="14" lengthAdjust="spacing" textLength="124" x="830" y="738.0889">password : String</text><rect fill="none" height="6" style="stroke:#C82930;stroke-width:1.0;" width="6" x="818" y="748.0391"/><text fill="#000000" font-family="sans-serif" font-size="14" lengthAdjust="spacing" textLength="183" x="830" y="754.3857">systemRole : SystemRole</text><line style="stroke:#181818;stroke-width:0.5;" x1="811" x2="1018" y1="761.6875" y2="761.6875"/></g><!--class Centre--><g id="elem_Centre"><rect codeLine="8" fill="#F1F1F1" height="64.2969" id="Centre" rx="2.5" ry="2.5" style="stroke:#181818;stroke-width:0.5;" width="123" x="7" y="326.5"/><ellipse cx="40.45" cy="342.5" fill="#ADD1B2" rx="11" ry="11" style="stroke:#181818;stroke-width:1.0;"/><path d="M42.7938,338.1719 C41.8563,337.7344 41.2625,337.5938 40.3875,337.5938 C37.7625,337.5938 35.7625,339.6719 35.7625,342.3906 L35.7625,343.5156 C35.7625,346.0938 37.8719,347.9844 40.7625,347.9844 C41.9813,347.9844 43.1375,347.6875 43.8875,347.1406 C44.4656,346.7344 44.7938,346.2813 44.7938,345.8906 C44.7938,345.4375 44.4031,345.0469 43.9344,345.0469 C43.7156,345.0469 43.5125,345.125 43.325,345.3125 C42.8719,345.7969 42.8719,345.7969 42.6844,345.8906 C42.2625,346.1563 41.575,346.2813 40.8094,346.2813 C38.7625,346.2813 37.4656,345.1875 37.4656,343.4844 L37.4656,342.3906 C37.4656,340.6094 38.7156,339.2969 40.45,339.2969 C41.0281,339.2969 41.6375,339.4531 42.1063,339.7031 C42.5906,339.9844 42.7625,340.2031 42.8563,340.6094 C42.9188,341.0156 42.95,341.1406 43.0906,341.2656 C43.2313,341.4063 43.4656,341.5156 43.6844,341.5156 C43.95,341.5156 44.2156,341.375 44.3875,341.1563 C44.4969,341 44.5281,340.8125 44.5281,340.3906 L44.5281,338.9688 C44.5281,338.5313 44.5125,338.4063 44.4188,338.25 C44.2625,337.9844 43.9813,337.8438 43.6844,337.8438 C43.3875,337.8438 43.1844,337.9375 42.9656,338.25 L42.7938,338.1719 Z " fill="#000000"/><text fill="#000000" font-family="sans-serif" font-size="14" lengthAdjust="spacing" textLength="50" x="58.55" y="347.3467">Centre</text><line style="stroke:#181818;stroke-width:0.5;" x1="8" x2="129" y1="358.5" y2="358.5"/><rect fill="none" height="6" style="stroke:#C82930;stroke-width:1.0;" width="6" x="15" y="369.1484"/><text fill="#000000" font-family="sans-serif" font-size="14" lengthAdjust="spacing" textLength="97" x="27" y="375.4951">name : String</text><line style="stroke:#181818;stroke-width:0.5;" x1="8" x2="129" y1="382.7969" y2="382.7969"/></g><!--class HealthInsurance--><g id="elem_HealthInsurance"><rect codeLine="12" fill="#F1F1F1" height="64.2969" id="HealthInsurance" rx="2.5" ry="2.5" style="stroke:#181818;stroke-width:0.5;" width="147" x="165" y="326.5"/><ellipse cx="180" cy="342.5" fill="#ADD1B2" rx="11" ry="11" style="stroke:#181818;stroke-width:1.0;"/><path d="M182.3438,338.1719 C181.4063,337.7344 180.8125,337.5938 179.9375,337.5938 C177.3125,337.5938 175.3125,339.6719 175.3125,342.3906 L175.3125,343.5156 C175.3125,346.0938 177.4219,347.9844 180.3125,347.9844 C181.5313,347.9844 182.6875,347.6875 183.4375,347.1406 C184.0156,346.7344 184.3438,346.2813 184.3438,345.8906 C184.3438,345.4375 183.9531,345.0469 183.4844,345.0469 C183.2656,345.0469 183.0625,345.125 182.875,345.3125 C182.4219,345.7969 182.4219,345.7969 182.2344,345.8906 C181.8125,346.1563 181.125,346.2813 180.3594,346.2813 C178.3125,346.2813 177.0156,345.1875 177.0156,343.4844 L177.0156,342.3906 C177.0156,340.6094 178.2656,339.2969 180,339.2969 C180.5781,339.2969 181.1875,339.4531 181.6563,339.7031 C182.1406,339.9844 182.3125,340.2031 182.4063,340.6094 C182.4688,341.0156 182.5,341.1406 182.6406,341.2656 C182.7813,341.4063 183.0156,341.5156 183.2344,341.5156 C183.5,341.5156 183.7656,341.375 183.9375,341.1563 C184.0469,341 184.0781,340.8125 184.0781,340.3906 L184.0781,338.9688 C184.0781,338.5313 184.0625,338.4063 183.9688,338.25 C183.8125,337.9844 183.5313,337.8438 183.2344,337.8438 C182.9375,337.8438 182.7344,337.9375 182.5156,338.25 L182.3438,338.1719 Z " fill="#000000"/><text fill="#000000" font-family="sans-serif" font-size="14" lengthAdjust="spacing" textLength="115" x="194" y="347.3467">HealthInsurance</text><line style="stroke:#181818;stroke-width:0.5;" x1="166" x2="311" y1="358.5" y2="358.5"/><rect fill="none" height="6" style="stroke:#C82930;stroke-width:1.0;" width="6" x="173" y="369.1484"/><text fill="#000000" font-family="sans-serif" font-size="14" lengthAdjust="spacing" textLength="97" x="185" y="375.4951">name : String</text><line style="stroke:#181818;stroke-width:0.5;" x1="166" x2="311" y1="382.7969" y2="382.7969"/></g><!--class Specialty--><g id="elem_Specialty"><rect codeLine="16" fill="#F1F1F1" height="64.2969" id="Specialty" rx="2.5" ry="2.5" style="stroke:#181818;stroke-width:0.5;" width="123" x="347" y="326.5"/><ellipse cx="372.8" cy="342.5" fill="#ADD1B2" rx="11" ry="11" style="stroke:#181818;stroke-width:1.0;"/><path d="M375.1438,338.1719 C374.2063,337.7344 373.6125,337.5938 372.7375,337.5938 C370.1125,337.5938 368.1125,339.6719 368.1125,342.3906 L368.1125,343.5156 C368.1125,346.0938 370.2219,347.9844 373.1125,347.9844 C374.3313,347.9844 375.4875,347.6875 376.2375,347.1406 C376.8156,346.7344 377.1438,346.2813 377.1438,345.8906 C377.1438,345.4375 376.7531,345.0469 376.2844,345.0469 C376.0656,345.0469 375.8625,345.125 375.675,345.3125 C375.2219,345.7969 375.2219,345.7969 375.0344,345.8906 C374.6125,346.1563 373.925,346.2813 373.1594,346.2813 C371.1125,346.2813 369.8156,345.1875 369.8156,343.4844 L369.8156,342.3906 C369.8156,340.6094 371.0656,339.2969 372.8,339.2969 C373.3781,339.2969 373.9875,339.4531 374.4563,339.7031 C374.9406,339.9844 375.1125,340.2031 375.2063,340.6094 C375.2688,341.0156 375.3,341.1406 375.4406,341.2656 C375.5813,341.4063 375.8156,341.5156 376.0344,341.5156 C376.3,341.5156 376.5656,341.375 376.7375,341.1563 C376.8469,341 376.8781,340.8125 376.8781,340.3906 L376.8781,338.9688 C376.8781,338.5313 376.8625,338.4063 376.7688,338.25 C376.6125,337.9844 376.3313,337.8438 376.0344,337.8438 C375.7375,337.8438 375.5344,337.9375 375.3156,338.25 L375.1438,338.1719 Z " fill="#000000"/><text fill="#000000" font-family="sans-serif" font-size="14" lengthAdjust="spacing" textLength="67" x="389.2" y="347.3467">Specialty</text><line style="stroke:#181818;stroke-width:0.5;" x1="348" x2="469" y1="358.5" y2="358.5"/><rect fill="none" height="6" style="stroke:#C82930;stroke-width:1.0;" width="6" x="355" y="369.1484"/><text fill="#000000" font-family="sans-serif" font-size="14" lengthAdjust="spacing" textLength="97" x="367" y="375.4951">name : String</text><line style="stroke:#181818;stroke-width:0.5;" x1="348" x2="469" y1="382.7969" y2="382.7969"/></g><!--class Surgery--><g id="elem_Surgery"><rect codeLine="20" fill="#F1F1F1" height="227.2656" id="Surgery" rx="2.5" ry="2.5" style="stroke:#181818;stroke-width:0.5;" width="361" x="429" y="7"/><ellipse cx="577.75" cy="23" fill="#ADD1B2" rx="11" ry="11" style="stroke:#181818;stroke-width:1.0;"/><path d="M580.0938,18.6719 C579.1563,18.2344 578.5625,18.0938 577.6875,18.0938 C575.0625,18.0938 573.0625,20.1719 573.0625,22.8906 L573.0625,24.0156 C573.0625,26.5938 575.1719,28.4844 578.0625,28.4844 C579.2813,28.4844 580.4375,28.1875 581.1875,27.6406 C581.7656,27.2344 582.0938,26.7813 582.0938,26.3906 C582.0938,25.9375 581.7031,25.5469 581.2344,25.5469 C581.0156,25.5469 580.8125,25.625 580.625,25.8125 C580.1719,26.2969 580.1719,26.2969 579.9844,26.3906 C579.5625,26.6563 578.875,26.7813 578.1094,26.7813 C576.0625,26.7813 574.7656,25.6875 574.7656,23.9844 L574.7656,22.8906 C574.7656,21.1094 576.0156,19.7969 577.75,19.7969 C578.3281,19.7969 578.9375,19.9531 579.4063,20.2031 C579.8906,20.4844 580.0625,20.7031 580.1563,21.1094 C580.2188,21.5156 580.25,21.6406 580.3906,21.7656 C580.5313,21.9063 580.7656,22.0156 580.9844,22.0156 C581.25,22.0156 581.5156,21.875 581.6875,21.6563 C581.7969,21.5 581.8281,21.3125 581.8281,20.8906 L581.8281,19.4688 C581.8281,19.0313 581.8125,18.9063 581.7188,18.75 C581.5625,18.4844 581.2813,18.3438 580.9844,18.3438 C580.6875,18.3438 580.4844,18.4375 580.2656,18.75 L580.0938,18.6719 Z " fill="#000000"/><text fill="#000000" font-family="sans-serif" font-size="14" lengthAdjust="spacing" textLength="55" x="598.25" y="27.8467">Surgery</text><line style="stroke:#181818;stroke-width:0.5;" x1="430" x2="789" y1="39" y2="39"/><rect fill="none" height="6" style="stroke:#C82930;stroke-width:1.0;" width="6" x="437" y="49.6484"/><text fill="#000000" font-family="sans-serif" font-size="14" lengthAdjust="spacing" textLength="107" x="449" y="55.9951">Centre: centre</text><rect fill="none" height="6" style="stroke:#C82930;stroke-width:1.0;" width="6" x="437" y="65.9453"/><text fill="#000000" font-family="sans-serif" font-size="14" lengthAdjust="spacing" textLength="242" x="449" y="72.292">healthInsurance : HealthInsurance</text><rect fill="none" height="6" style="stroke:#C82930;stroke-width:1.0;" width="6" x="437" y="82.2422"/><text fill="#000000" font-family="sans-serif" font-size="14" lengthAdjust="spacing" textLength="145" x="449" y="88.5889">specialty : Specialty</text><rect fill="none" height="6" style="stroke:#C82930;stroke-width:1.0;" width="6" x="437" y="98.5391"/><text fill="#000000" font-family="sans-serif" font-size="14" lengthAdjust="spacing" textLength="101" x="449" y="104.8857">price : Double</text><rect fill="none" height="6" style="stroke:#C82930;stroke-width:1.0;" width="6" x="437" y="114.8359"/><text fill="#000000" font-family="sans-serif" font-size="14" lengthAdjust="spacing" textLength="132" x="449" y="121.1826">practice : Practice</text><rect fill="none" height="6" style="stroke:#C82930;stroke-width:1.0;" width="6" x="437" y="131.1328"/><text fill="#000000" font-family="sans-serif" font-size="14" lengthAdjust="spacing" textLength="221" x="449" y="137.4795">paymentDate : LocalDateTime</text><rect fill="none" height="6" style="stroke:#C82930;stroke-width:1.0;" width="6" x="437" y="147.4297"/><text fill="#000000" font-family="sans-serif" font-size="14" lengthAdjust="spacing" textLength="239" x="449" y="153.7764">completionDate : LocalDateTime</text><rect fill="none" height="6" style="stroke:#C82930;stroke-width:1.0;" width="6" x="437" y="163.7266"/><text fill="#000000" font-family="sans-serif" font-size="14" lengthAdjust="spacing" textLength="230" x="449" y="170.0732">paymentStatus: PaymentStatus</text><rect fill="none" height="6" style="stroke:#C82930;stroke-width:1.0;" width="6" x="437" y="180.0234"/><text fill="#000000" font-family="sans-serif" font-size="14" lengthAdjust="spacing" textLength="175" x="449" y="186.3701">members: List&lt;Person&gt;</text><rect fill="none" height="6" style="stroke:#C82930;stroke-width:1.0;" width="6" x="437" y="196.3203"/><text fill="#000000" font-family="sans-serif" font-size="14" lengthAdjust="spacing" textLength="335" x="449" y="202.667">memberBasedFees : List&lt;MemberBasedFees&gt;</text><rect fill="none" height="6" style="stroke:#C82930;stroke-width:1.0;" width="6" x="437" y="212.6172"/><text fill="#000000" font-family="sans-serif" font-size="14" lengthAdjust="spacing" textLength="259" x="449" y="218.9639">chiefSurgeryFee : MemberBasedFee</text><line style="stroke:#181818;stroke-width:0.5;" x1="430" x2="789" y1="226.2656" y2="226.2656"/></g><!--class MemberBasedFee--><g id="elem_MemberBasedFee"><rect codeLine="34" fill="#F1F1F1" height="80.5938" id="MemberBasedFee" rx="2.5" ry="2.5" style="stroke:#181818;stroke-width:0.5;" width="209" x="505" y="318"/><ellipse cx="541.6" cy="334" fill="#ADD1B2" rx="11" ry="11" style="stroke:#181818;stroke-width:1.0;"/><path d="M543.9438,329.6719 C543.0063,329.2344 542.4125,329.0938 541.5375,329.0938 C538.9125,329.0938 536.9125,331.1719 536.9125,333.8906 L536.9125,335.0156 C536.9125,337.5938 539.0219,339.4844 541.9125,339.4844 C543.1313,339.4844 544.2875,339.1875 545.0375,338.6406 C545.6156,338.2344 545.9438,337.7813 545.9438,337.3906 C545.9438,336.9375 545.5531,336.5469 545.0844,336.5469 C544.8656,336.5469 544.6625,336.625 544.475,336.8125 C544.0219,337.2969 544.0219,337.2969 543.8344,337.3906 C543.4125,337.6563 542.725,337.7813 541.9594,337.7813 C539.9125,337.7813 538.6156,336.6875 538.6156,334.9844 L538.6156,333.8906 C538.6156,332.1094 539.8656,330.7969 541.6,330.7969 C542.1781,330.7969 542.7875,330.9531 543.2563,331.2031 C543.7406,331.4844 543.9125,331.7031 544.0063,332.1094 C544.0688,332.5156 544.1,332.6406 544.2406,332.7656 C544.3813,332.9063 544.6156,333.0156 544.8344,333.0156 C545.1,333.0156 545.3656,332.875 545.5375,332.6563 C545.6469,332.5 545.6781,332.3125 545.6781,331.8906 L545.6781,330.4688 C545.6781,330.0313 545.6625,329.9063 545.5688,329.75 C545.4125,329.4844 545.1313,329.3438 544.8344,329.3438 C544.5375,329.3438 544.3344,329.4375 544.1156,329.75 L543.9438,329.6719 Z " fill="#000000"/><text fill="#000000" font-family="sans-serif" font-size="14" lengthAdjust="spacing" textLength="129" x="560.4" y="338.8467">MemberBasedFee</text><line style="stroke:#181818;stroke-width:0.5;" x1="506" x2="713" y1="350" y2="350"/><rect fill="none" height="6" style="stroke:#C82930;stroke-width:1.0;" width="6" x="513" y="360.6484"/><text fill="#000000" font-family="sans-serif" font-size="14" lengthAdjust="spacing" textLength="112" x="525" y="366.9951">person : Person</text><rect fill="none" height="6" style="stroke:#C82930;stroke-width:1.0;" width="6" x="513" y="376.9453"/><text fill="#000000" font-family="sans-serif" font-size="14" lengthAdjust="spacing" textLength="183" x="525" y="383.292">assignedAmount : Double</text><line style="stroke:#181818;stroke-width:0.5;" x1="506" x2="713" y1="390.5938" y2="390.5938"/></g><!--class RoleBasedFee--><g id="elem_RoleBasedFee"><rect codeLine="39" fill="#F1F1F1" height="80.5938" id="RoleBasedFee" rx="2.5" ry="2.5" style="stroke:#181818;stroke-width:0.5;" width="211" x="1053" y="491"/><ellipse cx="1103.75" cy="507" fill="#ADD1B2" rx="11" ry="11" style="stroke:#181818;stroke-width:1.0;"/><path d="M1106.0938,502.6719 C1105.1563,502.2344 1104.5625,502.0938 1103.6875,502.0938 C1101.0625,502.0938 1099.0625,504.1719 1099.0625,506.8906 L1099.0625,508.0156 C1099.0625,510.5938 1101.1719,512.4844 1104.0625,512.4844 C1105.2813,512.4844 1106.4375,512.1875 1107.1875,511.6406 C1107.7656,511.2344 1108.0938,510.7813 1108.0938,510.3906 C1108.0938,509.9375 1107.7031,509.5469 1107.2344,509.5469 C1107.0156,509.5469 1106.8125,509.625 1106.625,509.8125 C1106.1719,510.2969 1106.1719,510.2969 1105.9844,510.3906 C1105.5625,510.6563 1104.875,510.7813 1104.1094,510.7813 C1102.0625,510.7813 1100.7656,509.6875 1100.7656,507.9844 L1100.7656,506.8906 C1100.7656,505.1094 1102.0156,503.7969 1103.75,503.7969 C1104.3281,503.7969 1104.9375,503.9531 1105.4063,504.2031 C1105.8906,504.4844 1106.0625,504.7031 1106.1563,505.1094 C1106.2188,505.5156 1106.25,505.6406 1106.3906,505.7656 C1106.5313,505.9063 1106.7656,506.0156 1106.9844,506.0156 C1107.25,506.0156 1107.5156,505.875 1107.6875,505.6563 C1107.7969,505.5 1107.8281,505.3125 1107.8281,504.8906 L1107.8281,503.4688 C1107.8281,503.0313 1107.8125,502.9063 1107.7188,502.75 C1107.5625,502.4844 1107.2813,502.3438 1106.9844,502.3438 C1106.6875,502.3438 1106.4844,502.4375 1106.2656,502.75 L1106.0938,502.6719 Z " fill="#000000"/><text fill="#000000" font-family="sans-serif" font-size="14" lengthAdjust="spacing" textLength="101" x="1124.25" y="511.8467">RoleBasedFee</text><line style="stroke:#181818;stroke-width:0.5;" x1="1054" x2="1263" y1="523" y2="523"/><rect fill="none" height="6" style="stroke:#C82930;stroke-width:1.0;" width="6" x="1061" y="533.6484"/><text fill="#000000" font-family="sans-serif" font-size="14" lengthAdjust="spacing" textLength="185" x="1073" y="539.9951">surgeryRole : SurgeryRole</text><rect fill="none" height="6" style="stroke:#C82930;stroke-width:1.0;" width="6" x="1061" y="549.9453"/><text fill="#000000" font-family="sans-serif" font-size="14" lengthAdjust="spacing" textLength="148" x="1073" y="556.292">percentage : Double</text><line style="stroke:#181818;stroke-width:0.5;" x1="1054" x2="1263" y1="563.5938" y2="563.5938"/></g><!--class PaymentStatus--><g id="elem_PaymentStatus"><rect codeLine="45" fill="#F1F1F1" height="113.1875" id="PaymentStatus" rx="2.5" ry="2.5" style="stroke:#181818;stroke-width:0.5;" width="142" x="749.5" y="302"/><ellipse cx="764.5" cy="318" fill="#EB937F" rx="11" ry="11" style="stroke:#181818;stroke-width:1.0;"/><path d="M763.2969,318.875 L764.75,318.875 L764.75,318.9844 C764.75,319.3906 764.7813,319.5469 764.8594,319.7031 C765.0156,319.9531 765.2969,320.1094 765.5938,320.1094 C765.8438,320.1094 766.1094,319.9688 766.2656,319.75 C766.3906,319.5938 766.4219,319.4375 766.4219,318.9844 L766.4219,317.0625 C766.4219,316.9063 766.4219,316.8594 766.4063,316.7031 C766.3438,316.2344 766.0313,315.9219 765.5781,315.9219 C765.3281,315.9219 765.0625,316.0625 764.8906,316.2813 C764.7813,316.4531 764.75,316.6094 764.75,317.0625 L764.75,317.1875 L763.2969,317.1875 L763.2969,314.7813 L767.2813,314.7813 L767.2813,315.6406 C767.2813,316.0469 767.3125,316.2188 767.3906,316.375 C767.5625,316.625 767.8438,316.7813 768.125,316.7813 C768.3906,316.7813 768.6563,316.6406 768.8281,316.4219 C768.9375,316.25 768.9688,316.1094 768.9688,315.6406 L768.9688,313.0938 L761.3438,313.0938 C760.9063,313.0938 760.7813,313.1094 760.625,313.2031 C760.375,313.3594 760.2188,313.6563 760.2188,313.9375 C760.2188,314.2188 760.3594,314.4688 760.5781,314.6406 C760.7344,314.75 760.9219,314.7813 761.3438,314.7813 L761.5938,314.7813 L761.5938,321.2969 L761.3438,321.2969 C760.9375,321.2969 760.7813,321.3125 760.625,321.4219 C760.375,321.5938 760.2188,321.8594 760.2188,322.1563 C760.2188,322.4219 760.3594,322.6719 760.5781,322.8281 C760.7188,322.9531 760.9531,323 761.3438,323 L769.3438,323 L769.3438,320.4219 C769.3438,319.9844 769.3125,319.8438 769.2344,319.6875 C769.0625,319.4375 768.7813,319.2813 768.5,319.2813 C768.2344,319.2813 767.9688,319.3906 767.7969,319.6406 C767.6875,319.7969 767.6563,319.9375 767.6563,320.4219 L767.6563,321.2969 L763.2969,321.2969 L763.2969,318.875 Z " fill="#000000"/><text fill="#000000" font-family="sans-serif" font-size="14" lengthAdjust="spacing" textLength="110" x="778.5" y="322.8467">PaymentStatus</text><line style="stroke:#181818;stroke-width:0.5;" x1="750.5" x2="890.5" y1="334" y2="334"/><text fill="#000000" font-family="sans-serif" font-size="14" lengthAdjust="spacing" textLength="64" x="755.5" y="350.9951">PENDING</text><text fill="#000000" font-family="sans-serif" font-size="14" lengthAdjust="spacing" textLength="72" x="755.5" y="367.292">RECEIVED</text><text fill="#000000" font-family="sans-serif" font-size="14" lengthAdjust="spacing" textLength="50" x="755.5" y="383.5889">BILLED</text><text fill="#000000" font-family="sans-serif" font-size="14" lengthAdjust="spacing" textLength="95" x="755.5" y="399.8857">DISTRIBUTED</text><line style="stroke:#181818;stroke-width:0.5;" x1="750.5" x2="890.5" y1="407.1875" y2="407.1875"/></g><!--class Practice--><g id="elem_Practice"><rect codeLine="52" fill="#F1F1F1" height="129.4844" id="Practice" rx="2.5" ry="2.5" style="stroke:#181818;stroke-width:0.5;" width="321" x="998" y="294"/><ellipse cx="1124.75" cy="310" fill="#ADD1B2" rx="11" ry="11" style="stroke:#181818;stroke-width:1.0;"/><path d="M1127.0938,305.6719 C1126.1563,305.2344 1125.5625,305.0938 1124.6875,305.0938 C1122.0625,305.0938 1120.0625,307.1719 1120.0625,309.8906 L1120.0625,311.0156 C1120.0625,313.5938 1122.1719,315.4844 1125.0625,315.4844 C1126.2813,315.4844 1127.4375,315.1875 1128.1875,314.6406 C1128.7656,314.2344 1129.0938,313.7813 1129.0938,313.3906 C1129.0938,312.9375 1128.7031,312.5469 1128.2344,312.5469 C1128.0156,312.5469 1127.8125,312.625 1127.625,312.8125 C1127.1719,313.2969 1127.1719,313.2969 1126.9844,313.3906 C1126.5625,313.6563 1125.875,313.7813 1125.1094,313.7813 C1123.0625,313.7813 1121.7656,312.6875 1121.7656,310.9844 L1121.7656,309.8906 C1121.7656,308.1094 1123.0156,306.7969 1124.75,306.7969 C1125.3281,306.7969 1125.9375,306.9531 1126.4063,307.2031 C1126.8906,307.4844 1127.0625,307.7031 1127.1563,308.1094 C1127.2188,308.5156 1127.25,308.6406 1127.3906,308.7656 C1127.5313,308.9063 1127.7656,309.0156 1127.9844,309.0156 C1128.25,309.0156 1128.5156,308.875 1128.6875,308.6563 C1128.7969,308.5 1128.8281,308.3125 1128.8281,307.8906 L1128.8281,306.4688 C1128.8281,306.0313 1128.8125,305.9063 1128.7188,305.75 C1128.5625,305.4844 1128.2813,305.3438 1127.9844,305.3438 C1127.6875,305.3438 1127.4844,305.4375 1127.2656,305.75 L1127.0938,305.6719 Z " fill="#000000"/><text fill="#000000" font-family="sans-serif" font-size="14" lengthAdjust="spacing" textLength="59" x="1145.25" y="314.8467">Practice</text><line style="stroke:#181818;stroke-width:0.5;" x1="999" x2="1318" y1="326" y2="326"/><rect fill="none" height="6" style="stroke:#C82930;stroke-width:1.0;" width="6" x="1006" y="336.6484"/><text fill="#000000" font-family="sans-serif" font-size="14" lengthAdjust="spacing" textLength="87" x="1018" y="342.9951">lugar : Lugar</text><rect fill="none" height="6" style="stroke:#C82930;stroke-width:1.0;" width="6" x="1006" y="352.9453"/><text fill="#000000" font-family="sans-serif" font-size="14" lengthAdjust="spacing" textLength="191" x="1018" y="359.292">especialidad : Especialidad</text><rect fill="none" height="6" style="stroke:#C82930;stroke-width:1.0;" width="6" x="1006" y="369.2422"/><text fill="#000000" font-family="sans-serif" font-size="14" lengthAdjust="spacing" textLength="165" x="1018" y="375.5889">obraSocial : ObraSocial</text><rect fill="none" height="6" style="stroke:#C82930;stroke-width:1.0;" width="6" x="1006" y="385.5391"/><text fill="#000000" font-family="sans-serif" font-size="14" lengthAdjust="spacing" textLength="110" x="1018" y="391.8857">precio : Double</text><rect fill="none" height="6" style="stroke:#C82930;stroke-width:1.0;" width="6" x="1006" y="401.8359"/><text fill="#000000" font-family="sans-serif" font-size="14" lengthAdjust="spacing" textLength="295" x="1018" y="408.1826">honoariosPorRol : List&lt;HonorarioPorRol&gt;</text><line style="stroke:#181818;stroke-width:0.5;" x1="999" x2="1318" y1="415.4844" y2="415.4844"/></g><!--class Person--><g id="elem_Person"><rect codeLine="60" fill="#F1F1F1" height="96.8906" id="Person" rx="2.5" ry="2.5" style="stroke:#181818;stroke-width:0.5;" width="207" x="811" y="483"/><ellipse cx="885.75" cy="499" fill="#ADD1B2" rx="11" ry="11" style="stroke:#181818;stroke-width:1.0;"/><path d="M888.0938,494.6719 C887.1563,494.2344 886.5625,494.0938 885.6875,494.0938 C883.0625,494.0938 881.0625,496.1719 881.0625,498.8906 L881.0625,500.0156 C881.0625,502.5938 883.1719,504.4844 886.0625,504.4844 C887.2813,504.4844 888.4375,504.1875 889.1875,503.6406 C889.7656,503.2344 890.0938,502.7813 890.0938,502.3906 C890.0938,501.9375 889.7031,501.5469 889.2344,501.5469 C889.0156,501.5469 888.8125,501.625 888.625,501.8125 C888.1719,502.2969 888.1719,502.2969 887.9844,502.3906 C887.5625,502.6563 886.875,502.7813 886.1094,502.7813 C884.0625,502.7813 882.7656,501.6875 882.7656,499.9844 L882.7656,498.8906 C882.7656,497.1094 884.0156,495.7969 885.75,495.7969 C886.3281,495.7969 886.9375,495.9531 887.4063,496.2031 C887.8906,496.4844 888.0625,496.7031 888.1563,497.1094 C888.2188,497.5156 888.25,497.6406 888.3906,497.7656 C888.5313,497.9063 888.7656,498.0156 888.9844,498.0156 C889.25,498.0156 889.5156,497.875 889.6875,497.6563 C889.7969,497.5 889.8281,497.3125 889.8281,496.8906 L889.8281,495.4688 C889.8281,495.0313 889.8125,494.9063 889.7188,494.75 C889.5625,494.4844 889.2813,494.3438 888.9844,494.3438 C888.6875,494.3438 888.4844,494.4375 888.2656,494.75 L888.0938,494.6719 Z " fill="#000000"/><text fill="#000000" font-family="sans-serif" font-size="14" lengthAdjust="spacing" textLength="49" x="906.25" y="503.8467">Person</text><line style="stroke:#181818;stroke-width:0.5;" x1="812" x2="1017" y1="515" y2="515"/><rect fill="none" height="6" style="stroke:#C82930;stroke-width:1.0;" width="6" x="819" y="525.6484"/><text fill="#000000" font-family="sans-serif" font-size="14" lengthAdjust="spacing" textLength="93" x="831" y="531.9951">name: String</text><rect fill="none" height="6" style="stroke:#C82930;stroke-width:1.0;" width="6" x="819" y="541.9453"/><text fill="#000000" font-family="sans-serif" font-size="14" lengthAdjust="spacing" textLength="181" x="831" y="548.292">surgeryRole: SurgeryRole</text><rect fill="none" height="6" style="stroke:#C82930;stroke-width:1.0;" width="6" x="819" y="558.2422"/><text fill="#000000" font-family="sans-serif" font-size="14" lengthAdjust="spacing" textLength="74" x="831" y="564.5889">user : User</text><line style="stroke:#181818;stroke-width:0.5;" x1="812" x2="1017" y1="571.8906" y2="571.8906"/></g><!--class SurgeryRole--><g id="elem_SurgeryRole"><rect codeLine="66" fill="#F1F1F1" height="145.7813" id="SurgeryRole" rx="2.5" ry="2.5" style="stroke:#181818;stroke-width:0.5;" width="162" x="1065.5" y="640"/><ellipse cx="1099.85" cy="656" fill="#EB937F" rx="11" ry="11" style="stroke:#181818;stroke-width:1.0;"/><path d="M1098.6469,656.875 L1100.1,656.875 L1100.1,656.9844 C1100.1,657.3906 1100.1313,657.5469 1100.2094,657.7031 C1100.3656,657.9531 1100.6469,658.1094 1100.9438,658.1094 C1101.1938,658.1094 1101.4594,657.9688 1101.6156,657.75 C1101.7406,657.5938 1101.7719,657.4375 1101.7719,656.9844 L1101.7719,655.0625 C1101.7719,654.9063 1101.7719,654.8594 1101.7563,654.7031 C1101.6938,654.2344 1101.3813,653.9219 1100.9281,653.9219 C1100.6781,653.9219 1100.4125,654.0625 1100.2406,654.2813 C1100.1313,654.4531 1100.1,654.6094 1100.1,655.0625 L1100.1,655.1875 L1098.6469,655.1875 L1098.6469,652.7813 L1102.6313,652.7813 L1102.6313,653.6406 C1102.6313,654.0469 1102.6625,654.2188 1102.7406,654.375 C1102.9125,654.625 1103.1938,654.7813 1103.475,654.7813 C1103.7406,654.7813 1104.0063,654.6406 1104.1781,654.4219 C1104.2875,654.25 1104.3188,654.1094 1104.3188,653.6406 L1104.3188,651.0938 L1096.6938,651.0938 C1096.2563,651.0938 1096.1313,651.1094 1095.975,651.2031 C1095.725,651.3594 1095.5688,651.6563 1095.5688,651.9375 C1095.5688,652.2188 1095.7094,652.4688 1095.9281,652.6406 C1096.0844,652.75 1096.2719,652.7813 1096.6938,652.7813 L1096.9438,652.7813 L1096.9438,659.2969 L1096.6938,659.2969 C1096.2875,659.2969 1096.1313,659.3125 1095.975,659.4219 C1095.725,659.5938 1095.5688,659.8594 1095.5688,660.1563 C1095.5688,660.4219 1095.7094,660.6719 1095.9281,660.8281 C1096.0688,660.9531 1096.3031,661 1096.6938,661 L1104.6938,661 L1104.6938,658.4219 C1104.6938,657.9844 1104.6625,657.8438 1104.5844,657.6875 C1104.4125,657.4375 1104.1313,657.2813 1103.85,657.2813 C1103.5844,657.2813 1103.3188,657.3906 1103.1469,657.6406 C1103.0375,657.7969 1103.0063,657.9375 1103.0063,658.4219 L1103.0063,659.2969 L1098.6469,659.2969 L1098.6469,656.875 Z " fill="#000000"/><text fill="#000000" font-family="sans-serif" font-size="14" lengthAdjust="spacing" textLength="87" x="1118.15" y="660.8467">SurgeryRole</text><line style="stroke:#181818;stroke-width:0.5;" x1="1066.5" x2="1226.5" y1="672" y2="672"/><text fill="#000000" font-family="sans-serif" font-size="14" lengthAdjust="spacing" textLength="115" x="1071.5" y="688.9951">CHIEF_SURGERY</text><text fill="#000000" font-family="sans-serif" font-size="14" lengthAdjust="spacing" textLength="112" x="1071.5" y="705.292">MAIN_SURGEON</text><text fill="#000000" font-family="sans-serif" font-size="14" lengthAdjust="spacing" textLength="150" x="1071.5" y="721.5889">AUXILIARY_SURGEON</text><text fill="#000000" font-family="sans-serif" font-size="14" lengthAdjust="spacing" textLength="97" x="1071.5" y="737.8857">ANESTHESIST</text><text fill="#000000" font-family="sans-serif" font-size="14" lengthAdjust="spacing" textLength="101" x="1071.5" y="754.1826">PERFUSIONIST</text><text fill="#000000" font-family="sans-serif" font-size="14" lengthAdjust="spacing" textLength="131" x="1071.5" y="770.4795">INSTRUMENTATOR</text><line style="stroke:#181818;stroke-width:0.5;" x1="1066.5" x2="1226.5" y1="777.7813" y2="777.7813"/></g><!--class SystemRole--><g id="elem_SystemRole"><rect codeLine="75" fill="#F1F1F1" height="80.5938" id="SystemRole" rx="2.5" ry="2.5" style="stroke:#181818;stroke-width:0.5;" width="157" x="836" y="846"/><ellipse cx="868.55" cy="862" fill="#EB937F" rx="11" ry="11" style="stroke:#181818;stroke-width:1.0;"/><path d="M867.3469,862.875 L868.8,862.875 L868.8,862.9844 C868.8,863.3906 868.8313,863.5469 868.9094,863.7031 C869.0656,863.9531 869.3469,864.1094 869.6438,864.1094 C869.8938,864.1094 870.1594,863.9688 870.3156,863.75 C870.4406,863.5938 870.4719,863.4375 870.4719,862.9844 L870.4719,861.0625 C870.4719,860.9063 870.4719,860.8594 870.4563,860.7031 C870.3938,860.2344 870.0813,859.9219 869.6281,859.9219 C869.3781,859.9219 869.1125,860.0625 868.9406,860.2813 C868.8313,860.4531 868.8,860.6094 868.8,861.0625 L868.8,861.1875 L867.3469,861.1875 L867.3469,858.7813 L871.3313,858.7813 L871.3313,859.6406 C871.3313,860.0469 871.3625,860.2188 871.4406,860.375 C871.6125,860.625 871.8938,860.7813 872.175,860.7813 C872.4406,860.7813 872.7063,860.6406 872.8781,860.4219 C872.9875,860.25 873.0188,860.1094 873.0188,859.6406 L873.0188,857.0938 L865.3938,857.0938 C864.9563,857.0938 864.8313,857.1094 864.675,857.2031 C864.425,857.3594 864.2688,857.6563 864.2688,857.9375 C864.2688,858.2188 864.4094,858.4688 864.6281,858.6406 C864.7844,858.75 864.9719,858.7813 865.3938,858.7813 L865.6438,858.7813 L865.6438,865.2969 L865.3938,865.2969 C864.9875,865.2969 864.8313,865.3125 864.675,865.4219 C864.425,865.5938 864.2688,865.8594 864.2688,866.1563 C864.2688,866.4219 864.4094,866.6719 864.6281,866.8281 C864.7688,866.9531 865.0031,867 865.3938,867 L873.3938,867 L873.3938,864.4219 C873.3938,863.9844 873.3625,863.8438 873.2844,863.6875 C873.1125,863.4375 872.8313,863.2813 872.55,863.2813 C872.2844,863.2813 872.0188,863.3906 871.8469,863.6406 C871.7375,863.7969 871.7063,863.9375 871.7063,864.4219 L871.7063,865.2969 L867.3469,865.2969 L867.3469,862.875 Z " fill="#000000"/><text fill="#000000" font-family="sans-serif" font-size="14" lengthAdjust="spacing" textLength="86" x="886.45" y="866.8467">SystemRole</text><line style="stroke:#181818;stroke-width:0.5;" x1="837" x2="992" y1="878" y2="878"/><text fill="#000000" font-family="sans-serif" font-size="14" lengthAdjust="spacing" textLength="145" x="842" y="894.9951">CHIEF_OF_SURGERY,</text><text fill="#000000" font-family="sans-serif" font-size="14" lengthAdjust="spacing" textLength="76" x="842" y="911.292">EMPLOYEE</text><line style="stroke:#181818;stroke-width:0.5;" x1="837" x2="992" y1="918.5938" y2="918.5938"/></g><!--link RoleBasedFee to SurgeryRole--><g id="link_RoleBasedFee_SurgeryRole"><path codeLine="80" d="M1155.84,572.337 C1154.51,592.168 1153.2708,610.7794 1151.7308,633.7794 " fill="none" id="RoleBasedFee-to-SurgeryRole" style="stroke:#181818;stroke-width:1.0;"/><polygon fill="#181818" points="1151.33,639.766,1155.9223,631.0533,1151.664,634.7772,1147.9402,630.5189,1151.33,639.766" style="stroke:#181818;stroke-width:1.0;"/></g><!--link MemberBasedFee to Person--><g id="link_MemberBasedFee_Person"><path codeLine="82" d="M680.24,399.161 C724.85,424.172 777.4785,453.6777 824.5345,480.0607 " fill="none" id="MemberBasedFee-to-Person" style="stroke:#181818;stroke-width:1.0;"/><polygon fill="#181818" points="829.768,482.995,823.8739,475.1045,825.4067,480.5498,819.9615,482.0826,829.768,482.995" style="stroke:#181818;stroke-width:1.0;"/></g><!--link Practice to RoleBasedFee--><g id="link_Practice_RoleBasedFee"><path codeLine="85" d="M1158.5,423.174 C1158.5,445.869 1158.5,464.762 1158.5,484.856 " fill="none" id="Practice-to-RoleBasedFee" style="stroke:#181818;stroke-width:1.0;"/><polygon fill="#181818" points="1158.5,490.856,1162.5,481.856,1158.5,485.856,1154.5,481.856,1158.5,490.856" style="stroke:#181818;stroke-width:1.0;"/><text fill="#000000" font-family="sans-serif" font-size="13" lengthAdjust="spacing" textLength="7" x="1150.9203" y="479.9937">*</text></g><!--link Person to User--><g id="link_Person_User"><path codeLine="87" d="M914.5,580.131 C914.5,603.501 914.5,625.797 914.5,650.177 " fill="none" id="Person-to-User" style="stroke:#181818;stroke-width:1.0;"/><polygon fill="#181818" points="914.5,656.177,918.5,647.177,914.5,651.177,910.5,647.177,914.5,656.177" style="stroke:#181818;stroke-width:1.0;"/></g><!--link Person to SurgeryRole--><g id="link_Person_SurgeryRole"><path codeLine="88" d="M976.063,580.131 C1003.448,601.319 1031.3249,622.886 1060.6549,645.583 " fill="none" id="Person-to-SurgeryRole" style="stroke:#181818;stroke-width:1.0;"/><polygon fill="#181818" points="1065.4,649.255,1060.7303,640.5836,1061.4457,646.195,1055.8343,646.9104,1065.4,649.255" style="stroke:#181818;stroke-width:1.0;"/></g><!--link User to SystemRole--><g id="link_User_SystemRole"><path codeLine="90" d="M914.5,769.681 C914.5,794.524 914.5,817.222 914.5,839.8363 " fill="none" id="User-to-SystemRole" style="stroke:#181818;stroke-width:1.0;"/><polygon fill="#181818" points="914.5,845.8363,918.5,836.8363,914.5,840.8363,910.5,836.8363,914.5,845.8363" style="stroke:#181818;stroke-width:1.0;"/></g><!--link Surgery to Centre--><g id="link_Surgery_Centre"><path codeLine="92" d="M428.874,174.011 C341,203.237 235.593,243.888 147.5,294 C131.593,303.049 120.1662,311.3658 106.7499,322.6358 " fill="none" id="Surgery-to-Centre" style="stroke:#181818;stroke-width:1.0;"/><polygon fill="#181818" points="102.1557,326.495,111.6198,323.769,105.9842,323.279,106.4742,317.6434,102.1557,326.495" style="stroke:#181818;stroke-width:1.0;"/></g><!--link Surgery to HealthInsurance--><g id="link_Surgery_HealthInsurance"><path codeLine="93" d="M428.923,230.654 C395.648,251.359 361.364,273.092 329.5,294 C313.876,304.252 301.94,312.4054 287.037,322.8594 " fill="none" id="Surgery-to-HealthInsurance" style="stroke:#181818;stroke-width:1.0;"/><polygon fill="#181818" points="282.125,326.305,291.7901,324.4112,286.2183,323.4337,287.1959,317.8619,282.125,326.305" style="stroke:#181818;stroke-width:1.0;"/></g><!--link Surgery to Specialty--><g id="link_Surgery_Specialty"><path codeLine="94" d="M513.415,234.316 C484.548,268.209 459.0854,298.1062 438.7964,321.9282 " fill="none" id="Surgery-to-Specialty" style="stroke:#181818;stroke-width:1.0;"/><polygon fill="#181818" points="434.906,326.496,443.7868,322.2379,438.148,322.6895,437.6963,317.0507,434.906,326.496" style="stroke:#181818;stroke-width:1.0;"/></g><!--link Surgery to Practice--><g id="link_Surgery_Practice"><path codeLine="95" d="M790.024,199.102 C861.435,229.8 936.9848,262.2763 1004.8578,291.4543 " fill="none" id="Surgery-to-Practice" style="stroke:#181818;stroke-width:1.0;"/><polygon fill="#181818" points="1010.37,293.824,1003.6814,286.5947,1005.7765,291.8493,1000.5219,293.9443,1010.37,293.824" style="stroke:#181818;stroke-width:1.0;"/></g><!--link Surgery to PaymentStatus--><g id="link_Surgery_PaymentStatus"><path codeLine="96" d="M710.365,234.316 C731.344,257.781 748.5689,277.046 766.7109,297.338 " fill="none" id="Surgery-to-PaymentStatus" style="stroke:#181818;stroke-width:1.0;"/><polygon fill="#181818" points="770.71,301.811,767.6934,292.4355,767.3775,298.0835,761.7294,297.7676,770.71,301.811" style="stroke:#181818;stroke-width:1.0;"/></g><!--link Surgery to Person--><g id="link_Surgery_Person"><path codeLine="97" d="M790.342,186.79 C837.168,212.747 882.083,247.744 909.5,294 C943.737,351.762 937.4284,426.3217 927.5704,476.9177 " fill="none" id="Surgery-to-Person" style="stroke:#181818;stroke-width:1.0;"/><polygon fill="#181818" points="926.423,482.807,932.0703,474.7381,927.3792,477.8993,924.218,473.2081,926.423,482.807" style="stroke:#181818;stroke-width:1.0;"/><text fill="#000000" font-family="sans-serif" font-size="13" lengthAdjust="spacing" textLength="7" x="920.6075" y="471.9888">*</text></g><!--link Surgery to MemberBasedFee--><g id="link_Surgery_MemberBasedFee"><path codeLine="98" d="M609.5,234.316 C609.5,264.299 609.5,288.728 609.5,311.842 " fill="none" id="Surgery-to-MemberBasedFee" style="stroke:#181818;stroke-width:1.0;"/><polygon fill="#181818" points="609.5,317.842,613.5,308.842,609.5,312.842,605.5,308.842,609.5,317.842" style="stroke:#181818;stroke-width:1.0;"/><text fill="#000000" font-family="sans-serif" font-size="13" lengthAdjust="spacing" textLength="7" x="601.9203" y="306.9774">*</text></g><!--SRC=[VLJRhjiW47pdAz1vh9eVEAeYvK9Ea1mxygLgdYhYqCII3H7OggAg_zvTx628glC4EplimB1Gjy9QMbbf_X2w661CHIVfEorwqwWhOB8JJHi2TrZnMvjBYDc7xMMNwzOjzG7vIqZj53PIzKQYXehgUy9UYhQ_SMK78rJz6REuoxe1yeD-HXhCLPe7CaRfTrgx4O1RB0MhNyJnG5xaFH34qvl6BTdguTnA1uYw7x7ZD7KcFJhGsueU4uckHOlpie7TGhhMtRsLVQFL_nZp-g8N_M2XSXX2kfFTMHf898tjlnrXgjNIusjXvMKdfQKJuH33oAnlZVmrkGGOC6FIR6MCewDtfuS7TXD0WDTSbRoiEZseVhR75y5k24lOKVdPCNCqbiUx4bSP5I9I3Lti15GwidJBqmz2SxPX_3lR4hhcIOBZbXTbpjTL2O7VoFEES1FjS1K6FS8HMtswzUOYiBjP449MduqeD0AGotpWMW1uEcoAcrPQc4RRepPmgkSzx04sY8_mCjYMS_BPqE7BcgrvzGbVArJ6nuk5d3q10ufjzfpjVXPL_i7o4w675K_7A4i9NLK_UC9N-Ic0KbQKUrQ0SUXilgiAdgKkuYcOMHrOMgxAB9_r_5ltSfbN_4eeEnoJxCGOBWXxW2uMo-Wu96upbv_QYv3dfJdqxSjRr4wG7liHaywC88uaC3cYymz59eR3nwyYWbw_XZ3dFuO8zRz014OFECpWSQQ3liAn9Vy0]--></g></svg>